<?xml version="1.0" encoding="UTF-8" standalone="no"?>
<!-- Created with Inkscape (http://www.inkscape.org/) -->

<svg
   xmlns:dc="http://purl.org/dc/elements/1.1/"
   xmlns:cc="http://creativecommons.org/ns#"
   xmlns:rdf="http://www.w3.org/1999/02/22-rdf-syntax-ns#"
   xmlns:svg="http://www.w3.org/2000/svg"
   xmlns="http://www.w3.org/2000/svg"
   xmlns:xlink="http://www.w3.org/1999/xlink"
   xmlns:sodipodi="http://sodipodi.sourceforge.net/DTD/sodipodi-0.dtd"
   xmlns:inkscape="http://www.inkscape.org/namespaces/inkscape"
   width="16"
   height="16"
   id="svg2"
   version="1.1"
   inkscape:version="0.48.2 r9819"
   sodipodi:docname="branches_obj.svg">
  <defs
     id="defs4">
    <linearGradient
       id="linearGradient3861">
      <stop
         style="stop-color:#caf3f6;stop-opacity:1;"
         offset="0"
         id="stop3863" />
      <stop
         style="stop-color:#ffffff;stop-opacity:1;"
         offset="1"
         id="stop3865" />
    </linearGradient>
    <linearGradient
       inkscape:collect="always"
       xlink:href="#linearGradient3861"
       id="linearGradient3867"
       x1="-11"
       y1="1054.3622"
       x2="-11"
       y2="1029.3622"
       gradientUnits="userSpaceOnUse"
       gradientTransform="matrix(0.5,0,0,0.5,11.03125,522.18034)" />
    <linearGradient
       id="linearGradient3861-0">
      <stop
         style="stop-color:#caf3f6;stop-opacity:1;"
         offset="0"
         id="stop3863-0" />
      <stop
         style="stop-color:#ffffff;stop-opacity:1;"
         offset="1"
         id="stop3865-9" />
    </linearGradient>
    <linearGradient
       y2="1029.3622"
       x2="-11"
       y1="1054.3622"
       x1="-11"
       gradientTransform="matrix(0.5,0,0,0.5,15,520.2123)"
       gradientUnits="userSpaceOnUse"
       id="linearGradient4138"
       xlink:href="#linearGradient3861-0"
       inkscape:collect="always" />
    <linearGradient
       inkscape:collect="always"
       xlink:href="#linearGradient3861"
       id="linearGradient4230"
       gradientUnits="userSpaceOnUse"
       gradientTransform="matrix(0.5,0,0,0.5,32.03125,543.3686)"
       x1="-11"
       y1="1054.3622"
       x2="-11"
       y2="1029.3622" />
    <linearGradient
       inkscape:collect="always"
       xlink:href="#linearGradient3861-0"
       id="linearGradient5408"
       gradientUnits="userSpaceOnUse"
       gradientTransform="translate(22.03125,-4.039)"
       x1="-11"
       y1="1054.3622"
       x2="-11"
       y2="1029.3622" />
    <clipPath
       clipPathUnits="userSpaceOnUse"
       id="clipPath5419">
      <path
         sodipodi:nodetypes="cccccccccc"
         inkscape:connector-curvature="0"
         id="path5421"
         d="m 8,1027.3622 0,10.9688 2,0 c 3.0625,0.031 6.03125,3.0313 6.03125,6.0313 l 0.03125,2.9687 2.96875,0 0,10 9.96875,0.029 0,-30 z"
         style="fill:none;stroke:#000000;stroke-width:1px;stroke-linecap:butt;stroke-linejoin:miter;stroke-opacity:1" />
    </clipPath>
  </defs>
  <sodipodi:namedview
     id="base"
     pagecolor="#ffffff"
     bordercolor="#666666"
     borderopacity="1.0"
     inkscape:pageopacity="0.0"
     inkscape:pageshadow="2"
     inkscape:zoom="32"
     inkscape:cx="-0.20961511"
     inkscape:cy="3.0308358"
     inkscape:document-units="px"
     inkscape:current-layer="g6616"
     showgrid="true"
     inkscape:window-width="2268"
     inkscape:window-height="1309"
     inkscape:window-x="139"
     inkscape:window-y="9"
     inkscape:window-maximized="0"
     showguides="true"
     inkscape:guide-bbox="true"
     inkscape:snap-global="false">
    <inkscape:grid
       type="xygrid"
       id="grid4000" />
  </sodipodi:namedview>
  <metadata
     id="metadata7">
    <rdf:RDF>
      <cc:Work
         rdf:about="">
        <dc:format>image/svg+xml</dc:format>
        <dc:type
           rdf:resource="http://purl.org/dc/dcmitype/StillImage" />
        <dc:title></dc:title>
      </cc:Work>
    </rdf:RDF>
  </metadata>
  <g
     inkscape:label="Layer 1"
     inkscape:groupmode="layer"
     id="layer1"
     style="display:inline"
     transform="translate(0,-1036.3622)">
    <g
       id="g6616">
      <path
         style="fill:url(#linearGradient3867);fill-opacity:1;stroke:#679093;stroke-width:1;stroke-linecap:butt;stroke-linejoin:miter;stroke-miterlimit:4;stroke-opacity:1;stroke-dasharray:none"
         d="m 4.53125,1038.3617 0,4.5 -2,0 c -1,0 -2,1 -2,2 l 0,2 -2,0 0,1 3,3 3,-3 0,-1 -2,0 0,-1 c 0,-0.5 0.5,-1 1,-1 l 4,0 c 0.5,0 1,0.5 1,1 l 0,1 -2,0 0,1 3,3 3,-3 0,-1 -2,0 0,-2 c 0,-1 -1,-2 -2,-2 l -2,0 0,-4.5"
         id="path3091"
         inkscape:connector-curvature="0"
         sodipodi:nodetypes="cccccccccccccccccccccccccc" />
      <path
         sodipodi:nodetypes="cccccccccccccccccccccccccc"
         inkscape:connector-curvature="0"
         id="path4121-4"
         d="m 9.03125,1028.3236 0,9 -4,0 c -2,0 -4,2 -4,4 l 0,4 -4,0 0,2 6,6 6,-6 0,-2 -4,0 0,-2 c 0,-1 1,-2 2,-2 l 8,0 c 1,0 2,1 2,2 l 0,2 -4,0 0,2 6,6 6,-6 0,-2 -4,0 0,-4 c 0,-2 -2,-4 -4,-4 l -4,0 0,-9"
         style="fill:url(#linearGradient5408);fill-opacity:1;stroke:#679093;stroke-width:2;stroke-linecap:butt;stroke-linejoin:miter;stroke-miterlimit:4;stroke-opacity:1;stroke-dasharray:none;display:inline"
         clip-path="url(#clipPath5419)"
         transform="matrix(0.5,0,0,0.5,4.015625,522.19981)" />
    </g>
  </g>
</svg>
