<?xml version="1.0" encoding="UTF-8" standalone="no"?>
<!-- Created with Inkscape (http://www.inkscape.org/) -->

<svg
   width="16"
   height="16"
   id="svg2"
   version="1.1"
   xmlns:xlink="http://www.w3.org/1999/xlink"
   xmlns="http://www.w3.org/2000/svg"
   xmlns:svg="http://www.w3.org/2000/svg"
   xmlns:rdf="http://www.w3.org/1999/02/22-rdf-syntax-ns#"
   xmlns:cc="http://creativecommons.org/ns#"
   xmlns:dc="http://purl.org/dc/elements/1.1/">
  <defs
     id="defs4">
    <linearGradient
       id="linearGradient3809">
      <stop
         style="stop-color:#bbbbbb;stop-opacity:1;"
         offset="0"
         id="stop3811" />
      <stop
         style="stop-color:#eeeeee;stop-opacity:1;"
         offset="1"
         id="stop3813" />
    </linearGradient>
    <linearGradient
       xlink:href="#linearGradient3809"
       id="linearGradient4781"
       gradientUnits="userSpaceOnUse"
       gradientTransform="matrix(-0.5,0,0,0.5,3,1039.3622)"
       x1="-16"
       y1="15"
       x2="-16"
       y2="3" />
    <linearGradient
       xlink:href="#linearGradient3809"
       id="linearGradient4784"
       gradientUnits="userSpaceOnUse"
       gradientTransform="matrix(0.5,0,0,0.5,12,1039.3622)"
       x1="-16"
       y1="15"
       x2="-16"
       y2="3" />
  </defs>
  <metadata
     id="metadata7">
    <rdf:RDF>
      <cc:Work
         rdf:about="">
        <dc:format>image/svg+xml</dc:format>
        <dc:type
           rdf:resource="http://purl.org/dc/dcmitype/StillImage" />
        <dc:title />
      </cc:Work>
    </rdf:RDF>
  </metadata>
  <g
     id="layer1"
     style="display:inline"
     transform="translate(0,-1036.3622)">
    <g
       id="g6616">
      <path
         style="display:inline;fill:none;stroke:#3f62de;stroke-width:1.5;stroke-dasharray:none;stroke-dashoffset:0;stroke-opacity:1"
         d="m 4.0445337,1037.7432 1.9049438,3.2301 -0.026918,0.016 v 0"
         id="path1-3-3" />
      <path
         style="display:inline;fill:none;stroke:#3f62de;stroke-width:1.5;stroke-dasharray:none;stroke-dashoffset:0;stroke-opacity:1"
         d="m 10.930648,1037.7432 -1.9049436,3.2301 0.026918,0.016 v 0"
         id="path1-3-3-7" />
      <path
         style="display:inline;fill:none;stroke:#3f62de;stroke-width:1.5;stroke-dasharray:none;stroke-dashoffset:0;stroke-opacity:1"
         d="m 4.0522733,1049.9717 1.9049436,-3.2301 -0.026918,-0.016 v 0"
         id="path1-3-3-7-4" />
      <path
         style="display:inline;fill:none;stroke:#3f62de;stroke-width:1.5;stroke-dasharray:none;stroke-dashoffset:0;stroke-opacity:1"
         d="m 10.961911,1049.9718 -1.9049442,-3.2301 0.02692,-0.016 v 0"
         id="path1-3-3-7-4-1" />
      <path
         id="path3133"
         d="M 6.5,1040.8622 H 4 c -1.5,0 -2.5,1.5 -2.5,3 v 0 c 0,1.5 1,3 2.5,3 h 2.5 v -2 h -2 c -0.5,0 -1,-0.5 -1,-1 v 0 c 0,-0.5 0.5,-1 1,-1 h 2 z"
         style="display:inline;fill:url(#linearGradient4784);fill-opacity:1;stroke:#555555;stroke-width:1;stroke-linecap:butt;stroke-linejoin:miter;stroke-miterlimit:4;stroke-dasharray:none;stroke-opacity:1" />
      <path
         id="path3133-7"
         d="M 8.5,1040.8622 H 11 c 1.5,0 2.5,1.5 2.5,3 v 0 c 0,1.5 -1,3 -2.5,3 H 8.5 v -2 h 2 c 0.5,0 1,-0.5 1,-1 v 0 c 0,-0.5 -0.5,-1 -1,-1 h -2 z"
         style="display:inline;fill:url(#linearGradient4781);fill-opacity:1;stroke:#555555;stroke-width:1;stroke-linecap:butt;stroke-linejoin:miter;stroke-miterlimit:4;stroke-dasharray:none;stroke-opacity:1" />
      <path
         style="fill:none;stroke:#3f62de;stroke-width:0.999997;stroke-dasharray:none;stroke-dashoffset:0;stroke-opacity:1"
         d="m 7.5,1037.3622 v 2.5 H 7.46875 v 0"
         id="path1" />
      <path
         style="display:inline;fill:none;stroke:#3f62de;stroke-width:0.999997;stroke-dasharray:none;stroke-dashoffset:0;stroke-opacity:1"
         d="m 7.5,1037.3622 v 2.5 H 7.46875 v 0"
         id="path1-3" />
      <path
         style="display:inline;fill:none;stroke:#3f62de;stroke-width:0.999997;stroke-dasharray:none;stroke-dashoffset:0;stroke-opacity:1"
         d="m 7.5,1047.3622 v 2.5 H 7.46875 v 0"
         id="path1-2" />
    </g>
  </g>
</svg>
