<?xml version="1.0" encoding="UTF-8" standalone="no"?>
<!-- Created with Inkscape (http://www.inkscape.org/) -->

<svg
   width="16"
   height="16"
   id="svg2"
   version="1.1"
   xmlns:xlink="http://www.w3.org/1999/xlink"
   xmlns="http://www.w3.org/2000/svg"
   xmlns:svg="http://www.w3.org/2000/svg"
   xmlns:rdf="http://www.w3.org/1999/02/22-rdf-syntax-ns#"
   xmlns:cc="http://creativecommons.org/ns#"
   xmlns:dc="http://purl.org/dc/elements/1.1/">
  <defs
     id="defs4">
    <linearGradient
       id="linearGradient3865">
      <stop
         style="stop-color:#ffffff;stop-opacity:1;"
         offset="0"
         id="stop3867" />
      <stop
         style="stop-color:#72e57f;stop-opacity:1;"
         offset="1"
         id="stop3869" />
    </linearGradient>
    <linearGradient
       id="linearGradient4029">
      <stop
         style="stop-color:#ffd461;stop-opacity:1;"
         offset="0"
         id="stop4031" />
      <stop
         id="stop4037"
         offset="0.73271257"
         style="stop-color:#ffd461;stop-opacity:1;" />
      <stop
         style="stop-color:#ffffff;stop-opacity:1;"
         offset="1"
         id="stop4033" />
    </linearGradient>
    <linearGradient
       id="linearGradient3950">
      <stop
         style="stop-color:#e3a300;stop-opacity:1;"
         offset="0"
         id="stop3952" />
      <stop
         style="stop-color:#f1ae00;stop-opacity:1;"
         offset="1"
         id="stop3954" />
    </linearGradient>
    <linearGradient
       xlink:href="#linearGradient3950"
       id="linearGradient4151"
       x1="-16.53125"
       y1="5.578125"
       x2="-1.53125"
       y2="5.578125"
       gradientUnits="userSpaceOnUse"
       gradientTransform="translate(17.05829,1036.4192)" />
    <radialGradient
       xlink:href="#linearGradient4029"
       id="radialGradient4159"
       cx="-14.007328"
       cy="12.162078"
       fx="-14.007328"
       fy="12.162078"
       r="8"
       gradientTransform="matrix(0.60743689,-0.87123513,1.7049886,1.1887409,-5.6814465,1020.6615)"
       gradientUnits="userSpaceOnUse" />
    <linearGradient
       xlink:href="#linearGradient3865"
       id="linearGradient3881"
       x1="-34"
       y1="14"
       x2="-17"
       y2="14"
       gradientUnits="userSpaceOnUse"
       gradientTransform="matrix(0.5,0,0,0.5,19.541081,1040.3622)" />
  </defs>
  <metadata
     id="metadata7">
    <rdf:RDF>
      <cc:Work
         rdf:about="">
        <dc:format>image/svg+xml</dc:format>
        <dc:type
           rdf:resource="http://purl.org/dc/dcmitype/StillImage" />
        <dc:title />
      </cc:Work>
    </rdf:RDF>
  </metadata>
  <g
     id="layer1"
     style="display:inline"
     transform="translate(0,-1036.3622)">
    <path
       style="fill:url(#radialGradient4159);fill-opacity:1;stroke:url(#linearGradient4151);stroke-width:1;stroke-linejoin:round;stroke-miterlimit:4;stroke-dasharray:none"
       d="m 7.5895397,1036.8879 c -1.65042,0 -3.002266,1.0105 -3.15625,2.2813 -0.683002,0.4569 -1.15625,1.3946 -1.15625,2.4687 0,0.1348 0.017015,0.2454 0.03125,0.375 -0.135485,-0.025 -0.263881,-0.031 -0.40625,-0.031 -1.313283,0 -2.37500001,1.077 -2.37500001,2.4375 0,1.3604 1.06171701,2.4687 2.37500001,2.4687 0.258497,0 0.485743,-0.046 0.71875,-0.125 0.984266,0.2211 2.200554,0.3438 3.53125,0.3438 1.5485078,0 2.9515263,-0.1786 4.0000003,-0.4688 0.411138,0.2443 0.880939,0.4063 1.375,0.4063 1.659297,0 3,-1.55 3,-3.4688 0,-1.9188 -1.340703,-3.5 -3,-3.5 -0.27655,0 -0.558178,0.075 -0.8125,0.1563 -0.04958,-0.3956 -0.415551,-0.7217 -0.96875,-0.9375 -0.08143,-1.3268 -1.4549561,-2.4063 -3.1562503,-2.4063 z"
       id="path4126" />
    <path
       style="fill:url(#linearGradient3881);fill-opacity:1;stroke:#4a9045;stroke-width:1;stroke-linecap:butt;stroke-linejoin:bevel;stroke-miterlimit:4;stroke-opacity:1;stroke-dasharray:none"
       d="m 7.541081,1051.8622 4,-4 -1,0 -2,0 0,-4.5 -1,0 -1,0 0,4.5 -1.9999995,0 -0.9999998,0 z"
       id="path3873" />
  </g>
</svg>
