<?xml version="1.0" encoding="UTF-8" standalone="no"?>
<!-- Created with Inkscape (http://www.inkscape.org/) -->

<svg
   xmlns:dc="http://purl.org/dc/elements/1.1/"
   xmlns:cc="http://creativecommons.org/ns#"
   xmlns:rdf="http://www.w3.org/1999/02/22-rdf-syntax-ns#"
   xmlns:svg="http://www.w3.org/2000/svg"
   xmlns="http://www.w3.org/2000/svg"
   xmlns:xlink="http://www.w3.org/1999/xlink"
   xmlns:sodipodi="http://sodipodi.sourceforge.net/DTD/sodipodi-0.dtd"
   xmlns:inkscape="http://www.inkscape.org/namespaces/inkscape"
   width="16"
   height="16"
   id="svg2"
   version="1.1"
   inkscape:version="0.92.2 (5c3e80d, 2017-08-06)"
   sodipodi:docname="new_icon.svg">
  <defs
     id="defs4">
    <linearGradient
       id="linearGradient3861">
      <stop
         style="stop-color:#caf3f6;stop-opacity:1;"
         offset="0"
         id="stop3863" />
      <stop
         style="stop-color:#ffffff;stop-opacity:1;"
         offset="1"
         id="stop3865" />
    </linearGradient>
    <linearGradient
       inkscape:collect="always"
       xlink:href="#linearGradient3861"
       id="linearGradient3867"
       x1="-11"
       y1="1054.3622"
       x2="-11"
       y2="1029.3622"
       gradientUnits="userSpaceOnUse"
       gradientTransform="matrix(0.5,0,0,0.5,13.03125,521.1811)" />
    <linearGradient
       id="linearGradient4844-4">
      <stop
         id="stop4846-8"
         offset="0"
         style="stop-color:#414141;stop-opacity:1;" />
      <stop
         id="stop4848-8"
         offset="1"
         style="stop-color:#535353;stop-opacity:1;" />
    </linearGradient>
    <linearGradient
       id="x-bg-3"
       inkscape:collect="always">
      <stop
         id="x-bg-stop0"
         offset="0"
         style="stop-color:#df2c33;stop-opacity:1" />
      <stop
         id="x-bg-stop1"
         offset="1"
         style="stop-color:#f5817d;stop-opacity:1" />
    </linearGradient>
    <linearGradient
       id="x-stroke-6"
       inkscape:collect="always">
      <stop
         id="x-stroke-stop0"
         offset="0"
         style="stop-color:#c51325;stop-opacity:1;" />
      <stop
         id="x-stroke-stop1"
         offset="1"
         style="stop-color:#ca5d49;stop-opacity:1" />
    </linearGradient>
    <linearGradient
       inkscape:collect="always"
       xlink:href="#x-bg-3"
       id="linearGradient1443"
       gradientUnits="userSpaceOnUse"
       gradientTransform="matrix(0.32453011,0,0,0.32453011,6.1525755,703.53396)"
       x1="4.7528968"
       y1="1051.0466"
       x2="4.7528968"
       y2="1038.5814" />
    <linearGradient
       inkscape:collect="always"
       xlink:href="#x-stroke-6"
       id="linearGradient1445"
       gradientUnits="userSpaceOnUse"
       gradientTransform="matrix(0.32453011,0,0,0.32453011,6.1525755,703.53396)"
       x1="8.6566515"
       y1="1050.7386"
       x2="8.6566515"
       y2="1037.7" />
  </defs>
  <sodipodi:namedview
     id="base"
     pagecolor="#ffffff"
     bordercolor="#666666"
     borderopacity="1.0"
     inkscape:pageopacity="0.0"
     inkscape:pageshadow="2"
     inkscape:zoom="22.627417"
     inkscape:cx="-2.8774224"
     inkscape:cy="7.5902183"
     inkscape:document-units="px"
     inkscape:current-layer="g6616"
     showgrid="true"
     inkscape:window-width="1920"
     inkscape:window-height="1082"
     inkscape:window-x="-4"
     inkscape:window-y="-4"
     inkscape:window-maximized="1"
     showguides="true"
     inkscape:guide-bbox="true"
     inkscape:snap-global="false">
    <inkscape:grid
       type="xygrid"
       id="grid4000" />
  </sodipodi:namedview>
  <metadata
     id="metadata7">
    <rdf:RDF>
      <cc:Work
         rdf:about="">
        <dc:format>image/svg+xml</dc:format>
        <dc:type
           rdf:resource="http://purl.org/dc/dcmitype/StillImage" />
        <dc:title></dc:title>
      </cc:Work>
    </rdf:RDF>
  </metadata>
  <g
     inkscape:label="Layer 1"
     inkscape:groupmode="layer"
     id="layer1"
     style="display:inline"
     transform="translate(0,-1036.3622)">
    <g
       id="g6616">
      <g
         style="display:inline"
         id="layer1-4"
         inkscape:label="Layer 1"
         transform="matrix(0.60535164,0,0,0.60535164,6.3760192,414.27492)" />
      <g
         id="g11695"
         transform="matrix(1.0666978,0,0,1.2114761,-0.03027518,-220.37357)"
         inkscape:export-xdpi="96"
         inkscape:export-ydpi="96">
        <path
           sodipodi:nodetypes="cccccccccccccccccccccccccc"
           inkscape:connector-curvature="0"
           id="path3091"
           d="m 6.53125,1037.3622 v 4.5 h -2 c -1,0 -2,1 -2,2 v 2 h -2 v 1 l 3,3 3,-3 v -1 h -2 v -1 c 0,-0.5 0.5,-1 1,-1 h 4 c 0.5,0 1,0.5 1,1 v 1 h -2 v 1 l 3,3 3,-3 v -1 h -2 v -2 c 0,-1 -1,-2 -2,-2 h -2 v -4.5"
           style="fill:url(#linearGradient3867);fill-opacity:1;stroke:#679093;stroke-width:1;stroke-linecap:butt;stroke-linejoin:miter;stroke-miterlimit:4;stroke-dasharray:none;stroke-opacity:1" />
        <g
           transform="matrix(1.4476603,0,0,1.4396637,-1.4285816,-457.50189)"
           inkscape:label="Layer 1"
           id="layer1-0-4"
           style="display:inline">
          <path
             style="fill:url(#linearGradient1443);fill-opacity:1;stroke:url(#linearGradient1445);stroke-width:0.31823531;stroke-linecap:round;stroke-linejoin:miter;stroke-miterlimit:4;stroke-dasharray:none;stroke-dashoffset:0;stroke-opacity:1"
             d="m 10.50754,1040.6088 c -0.15194,-0.1519 -0.396568,-0.1519 -0.5485008,0 l -1.0101962,1.0102 -1.0101879,-1.0102 c -0.1519173,-0.1519 -0.3965675,-0.1519 -0.5484996,0 l -0.2791135,0.2791 c -0.1519256,0.1519 -0.1519215,0.3966 1.14e-5,0.5486 l 1.0101723,1.0101 -1.0101739,1.0102 c -0.1519477,0.1519 -0.1519444,0.3965 -4.1e-6,0.5485 l 0.2791291,0.2791 c 0.1519231,0.152 0.3965511,0.152 0.5484988,0 l 1.0101903,-1.0102 1.017209,1.0172 c 0.1519241,0.152 0.3965521,0.152 0.5485001,0 l 0.279113,-0.279 c 0.151933,-0.152 0.150407,-0.3951 -1.1e-5,-0.5485 l -1.0172102,-1.0173 1.0101912,-1.0101 c 0.151938,-0.152 0.151934,-0.3967 1e-5,-0.5486 z"
             id="x-0"
             inkscape:connector-curvature="0"
             sodipodi:nodetypes="sccccccccssccsccsccss">
            <title
               id="title3202-8">x</title>
          </path>
        </g>
      </g>
    </g>
  </g>
</svg>
