<?xml version="1.0" encoding="UTF-8" standalone="no"?>
<!-- Created with Inkscape (http://www.inkscape.org/) -->

<svg
   xmlns:dc="http://purl.org/dc/elements/1.1/"
   xmlns:cc="http://creativecommons.org/ns#"
   xmlns:rdf="http://www.w3.org/1999/02/22-rdf-syntax-ns#"
   xmlns:svg="http://www.w3.org/2000/svg"
   xmlns="http://www.w3.org/2000/svg"
   xmlns:xlink="http://www.w3.org/1999/xlink"
   xmlns:sodipodi="http://sodipodi.sourceforge.net/DTD/sodipodi-0.dtd"
   xmlns:inkscape="http://www.inkscape.org/namespaces/inkscape"
   width="16"
   height="16"
   id="svg2"
   version="1.1"
   inkscape:version="0.48.2 r9819"
   sodipodi:docname="new_branch_obj.svg">
  <defs
     id="defs4">
    <linearGradient
       id="linearGradient3861">
      <stop
         style="stop-color:#caf3f6;stop-opacity:1;"
         offset="0"
         id="stop3863" />
      <stop
         style="stop-color:#ffffff;stop-opacity:1;"
         offset="1"
         id="stop3865" />
    </linearGradient>
    <linearGradient
       inkscape:collect="always"
       xlink:href="#linearGradient3861"
       id="linearGradient3867"
       x1="-11"
       y1="1054.3622"
       x2="-11"
       y2="1029.3622"
       gradientUnits="userSpaceOnUse"
       gradientTransform="matrix(0.5,0,0,0.5,13,522.1811)" />
    <linearGradient
       inkscape:collect="always"
       xlink:href="#linearGradient4029-5"
       id="linearGradient3959"
       x1="-22"
       y1="24"
       x2="-22"
       y2="12"
       gradientUnits="userSpaceOnUse"
       gradientTransform="matrix(0.5,0,0,0.5,-14,1046.8622)" />
    <linearGradient
       id="linearGradient4029-5">
      <stop
         style="stop-color:#ffd461;stop-opacity:1;"
         offset="0"
         id="stop4031-5" />
      <stop
         id="stop3909"
         offset="1"
         style="stop-color:#ffffff;stop-opacity:1;" />
    </linearGradient>
  </defs>
  <sodipodi:namedview
     id="base"
     pagecolor="#ffffff"
     bordercolor="#666666"
     borderopacity="1.0"
     inkscape:pageopacity="0.0"
     inkscape:pageshadow="2"
     inkscape:zoom="32"
     inkscape:cx="2.70961"
     inkscape:cy="4.9684686"
     inkscape:document-units="px"
     inkscape:current-layer="g6616"
     showgrid="true"
     inkscape:window-width="2268"
     inkscape:window-height="1309"
     inkscape:window-x="139"
     inkscape:window-y="9"
     inkscape:window-maximized="0"
     showguides="true"
     inkscape:guide-bbox="true"
     inkscape:snap-global="true">
    <inkscape:grid
       type="xygrid"
       id="grid4000" />
  </sodipodi:namedview>
  <metadata
     id="metadata7">
    <rdf:RDF>
      <cc:Work
         rdf:about="">
        <dc:format>image/svg+xml</dc:format>
        <dc:type
           rdf:resource="http://purl.org/dc/dcmitype/StillImage" />
        <dc:title></dc:title>
      </cc:Work>
    </rdf:RDF>
  </metadata>
  <g
     inkscape:label="Layer 1"
     inkscape:groupmode="layer"
     id="layer1"
     style="display:inline"
     transform="translate(0,-1036.3622)">
    <g
       id="g6616">
      <path
         style="fill:url(#linearGradient3867);fill-opacity:1;stroke:#679093;stroke-width:1;stroke-linecap:butt;stroke-linejoin:miter;stroke-miterlimit:4;stroke-opacity:1;stroke-dasharray:none"
         d="m 6.5,1038.3622 0,4.5 -2,0 c -1,0 -2,1 -2,2 l 0,2 -2,0 0,1 3,3 3,-3 0,-1 -2,0 0,-1 c 0,-0.5 0.5,-1 1,-1 l 4,0 c 0.5,0 1,0.5 1,1 l 0,1 -2,0 0,1 3,3 3,-3 0,-1 -2,0 0,-2 c 0,-1 -1,-2 -2,-2 l -2,0 0,-4.5"
         id="path3091"
         inkscape:connector-curvature="0"
         sodipodi:nodetypes="cccccccccccccccccccccccccc" />
      <g
         style="display:inline"
         id="g3969"
         transform="translate(37,-16)">
        <path
           sodipodi:nodetypes="ccccccccccccc"
           inkscape:connector-curvature="0"
           id="path3165"
           d="m -25.5,1052.8622 0,2 -2,0 0,2 2,0 0,2 2,0 0,-2 2,0 0,-2 -2,0 0,-2 z"
           style="fill:url(#linearGradient3959);fill-opacity:1;stroke:#ac7e1e;stroke-width:1px;stroke-linecap:butt;stroke-linejoin:bevel;stroke-opacity:1" />
        <rect
           transform="translate(0,1036.3622)"
           y="18"
           x="-24"
           height="1"
           width="1"
           id="rect3961"
           style="fill:#ac7e1e;fill-opacity:1;stroke:none" />
        <rect
           transform="translate(0,1036.3622)"
           y="18"
           x="-26"
           height="1"
           width="1"
           id="rect3963"
           style="fill:#ac7e1e;fill-opacity:1;stroke:none" />
        <rect
           transform="translate(0,1036.3622)"
           y="20"
           x="-26"
           height="1"
           width="1"
           id="rect3965"
           style="fill:#ac7e1e;fill-opacity:1;stroke:none" />
        <rect
           transform="translate(0,1036.3622)"
           y="20"
           x="-24"
           height="1"
           width="1"
           id="rect3967"
           style="fill:#ac7e1e;fill-opacity:1;stroke:none" />
      </g>
    </g>
  </g>
</svg>
