<?xml version="1.0" encoding="UTF-8" standalone="no"?>
<!-- Created with Inkscape (http://www.inkscape.org/) -->

<svg
   xmlns:dc="http://purl.org/dc/elements/1.1/"
   xmlns:cc="http://creativecommons.org/ns#"
   xmlns:rdf="http://www.w3.org/1999/02/22-rdf-syntax-ns#"
   xmlns:svg="http://www.w3.org/2000/svg"
   xmlns="http://www.w3.org/2000/svg"
   xmlns:sodipodi="http://sodipodi.sourceforge.net/DTD/sodipodi-0.dtd"
   xmlns:inkscape="http://www.inkscape.org/namespaces/inkscape"
   width="16"
   height="16"
   id="svg2"
   version="1.1"
   inkscape:version="0.91 r13725"
   sodipodi:docname="settings.svg"
   inkscape:export-xdpi="180"
   inkscape:export-ydpi="180">
  <defs
     id="defs4" />
  <sodipodi:namedview
     id="base"
     pagecolor="#ffffff"
     bordercolor="#666666"
     borderopacity="1.0"
     inkscape:pageopacity="0.0"
     inkscape:pageshadow="2"
     inkscape:zoom="30"
     inkscape:cx="8"
     inkscape:cy="9.3333333"
     inkscape:document-units="px"
     inkscape:current-layer="g6616"
     showgrid="true"
     inkscape:window-width="1969"
     inkscape:window-height="1147"
     inkscape:window-x="372"
     inkscape:window-y="44"
     inkscape:window-maximized="0"
     showguides="true"
     inkscape:guide-bbox="true"
     inkscape:snap-global="false">
    <inkscape:grid
       type="xygrid"
       id="grid4000" />
  </sodipodi:namedview>
  <metadata
     id="metadata7">
    <rdf:RDF>
      <cc:Work
         rdf:about="">
        <dc:format>image/svg+xml</dc:format>
        <dc:type
           rdf:resource="http://purl.org/dc/dcmitype/StillImage" />
        <dc:title />
      </cc:Work>
    </rdf:RDF>
  </metadata>
  <g
     inkscape:label="Layer 1"
     inkscape:groupmode="layer"
     id="layer1"
     style="display:inline"
     transform="translate(0,-1036.3622)">
    <g
       id="g6616">
      <g
         style="display:inline"
         id="layer1-4"
         inkscape:label="Layer 1"
         transform="matrix(0.60535164,0,0,0.60535164,6.3760192,414.27492)" />
      <g
         id="g4168"
         transform="translate(1.7080066,0)">
        <path
           inkscape:connector-curvature="0"
           style="fill:#679093;fill-opacity:1;stroke:#dddddd;stroke-width:0.99999994;stroke-miterlimit:4;stroke-dasharray:none;stroke-opacity:1"
           id="path4"
           d="m 10.852758,1044.5992 c 0.03346,-0.2345 0.06691,-0.4688 0.06691,-0.7368 0,-0.268 -0.03346,-0.5024 -0.06691,-0.7369 l 1.505611,-1.0717 c 0.133832,-0.1004 0.200749,-0.3014 0.100374,-0.4688 l -1.472153,-2.4784 c -0.100374,-0.1675 -0.267665,-0.2345 -0.434955,-0.134 l -1.6729006,0.7703 c -0.401497,-0.3014 -0.8029928,-0.5358 -1.2714044,-0.7368 l -0.16729,-1.842 c -0.033456,-0.1675 -0.16729,-0.3014 -0.3345809,-0.3014 l -2.8773905,0 c -0.16729,0 -0.3345809,0.1339 -0.3345809,0.3014 l -0.16729,1.842 c -0.4684126,0.201 -0.9033662,0.4354 -1.2714052,0.7368 l -1.67290162,-0.7703 c -0.16729,-0.067 -0.3680381,0 -0.4349545,0.134 l -1.43869518,2.4784 c -0.1003745,0.1674 -0.033456,0.3684 0.10037358,0.4688 l 1.5056116,1.0717 c -0.033456,0.2345 -0.066913,0.4689 -0.066913,0.7369 0,0.268 0.033456,0.5023 0.066913,0.7368 l -1.57252698,1.0717 c -0.1338327,0.1005 -0.2007482,0.3015 -0.1003746,0.4689 l 1.43869528,2.4784 c 0.1003745,0.1674 0.2676645,0.2344 0.4349544,0.134 l 1.67290252,-0.7704 c 0.4014963,0.3015 0.8029926,0.5359 1.2714053,0.7369 l 0.16729,1.842 c 0.033456,0.1674 0.1672899,0.3015 0.3345799,0.3015 l 2.8773915,0 c 0.16729,0 0.3345799,-0.1341 0.3345799,-0.3015 l 0.16729,-1.842 c 0.468412,-0.201 0.9033658,-0.4354 1.2714038,-0.7369 l 1.6729026,0.7704 c 0.16729,0.067 0.368038,0 0.434954,-0.134 l 1.438695,-2.4784 c 0.100374,-0.1674 0.03346,-0.3684 -0.100374,-0.4689 l -1.405237,-1.0717 z m -5.2194524,2.6123 c -1.8401915,0 -3.3458031,-1.5071 -3.3458031,-3.3491 0,-1.842 1.5056116,-3.3491 3.3458031,-3.3491 1.8401926,0 3.3458028,1.5071 3.3458028,3.3491 0,1.842 -1.5056102,3.3491 -3.3458028,3.3491 z" />
        <g
           transform="translate(5.066053,2.256615)"
           id="g4164">
          <circle
             style="opacity:1;fill:none;fill-opacity:1;stroke:#679093;stroke-width:2;stroke-miterlimit:4;stroke-dasharray:none;stroke-opacity:1"
             id="path4160"
             cx="0.58398676"
             cy="1041.6058"
             r="3" />
          <circle
             style="opacity:1;fill:none;fill-opacity:1;stroke:#dddddd;stroke-width:0.99999994;stroke-miterlimit:4;stroke-dasharray:none;stroke-opacity:1"
             id="path4162"
             cx="0.58398676"
             cy="1041.6058"
             r="2.5" />
        </g>
      </g>
    </g>
  </g>
</svg>
