<?xml version="1.0" encoding="UTF-8" standalone="no"?>
<!-- Created with Inkscape (http://www.inkscape.org/) -->

<svg
   width="16"
   height="16"
   id="svg2"
   version="1.1"
   xmlns="http://www.w3.org/2000/svg"
   xmlns:svg="http://www.w3.org/2000/svg"
   xmlns:rdf="http://www.w3.org/1999/02/22-rdf-syntax-ns#"
   xmlns:cc="http://creativecommons.org/ns#"
   xmlns:dc="http://purl.org/dc/elements/1.1/">
  <defs
     id="defs4" />
  <metadata
     id="metadata7">
    <rdf:RDF>
      <cc:Work
         rdf:about="">
        <dc:format>image/svg+xml</dc:format>
        <dc:type
           rdf:resource="http://purl.org/dc/dcmitype/StillImage" />
        <dc:title />
      </cc:Work>
    </rdf:RDF>
  </metadata>
  <g
     id="layer1"
     style="display:inline"
     transform="translate(0,-1036.3622)">
    <path
       style="fill:#00bdfe;fill-opacity:0.94509804;stroke:#0ba0e5;stroke-width:1;stroke-linecap:butt;stroke-linejoin:miter;stroke-miterlimit:4;stroke-opacity:1;stroke-dasharray:none"
       d="m 3.617175,1039.6944 c -0.214122,0 -0.413775,0.022 -0.5625,0.1094 -0.61,0.3577 -1.952625,1.5517 -2.26562503,2.625 -0.4872,1.6705 -0.54185,3.953 -0.46875,5.5625 0.85520003,-1.587 1.81447503,-3.6281 3.60937503,-3.7969 0.9956,-0.094 2.627275,0.799 3.171875,1.25 0.5446201,0.4509 2.834063,2.6896 3.453125,3.0313 0.484893,0.2677 1.795679,0.7864 2.390625,0.4375 0.609934,-0.3577 1.952548,-1.5517 2.265625,-2.625 0.487182,-1.6705 0.541917,-3.953 0.46875,-5.5625 -0.855158,1.587 -1.814544,3.6281 -3.609375,3.7969 -0.995606,0.094 -2.627255,-0.799 -3.171875,-1.25 -0.5446,-0.4509 -2.834125,-2.6896 -3.453125,-3.0313 -0.363675,-0.2008 -1.1857595,-0.5356 -1.828125,-0.5469 z"
       id="path3123" />
  </g>
</svg>
