<?xml version="1.0" encoding="UTF-8" standalone="no"?>
<!-- Created with Inkscape (http://www.inkscape.org/) -->

<svg
   width="8"
   height="8"
   id="svg2"
   version="1.1"
   xmlns:xlink="http://www.w3.org/1999/xlink"
   xmlns="http://www.w3.org/2000/svg"
   xmlns:svg="http://www.w3.org/2000/svg"
   xmlns:rdf="http://www.w3.org/1999/02/22-rdf-syntax-ns#"
   xmlns:cc="http://creativecommons.org/ns#"
   xmlns:dc="http://purl.org/dc/elements/1.1/">
  <defs
     id="defs4">
    <linearGradient
       id="linearGradient3865">
      <stop
         style="stop-color:#ffffff;stop-opacity:1;"
         offset="0"
         id="stop3867" />
      <stop
         style="stop-color:#72e57f;stop-opacity:1;"
         offset="1"
         id="stop3869" />
    </linearGradient>
    <linearGradient
       xlink:href="#linearGradient3865"
       id="linearGradient3984"
       gradientUnits="userSpaceOnUse"
       gradientTransform="matrix(-0.8678962,0,0,0.880841,4.3677777,130.09725)"
       x1="22.519354"
       y1="1037.4841"
       x2="22.582371"
       y2="1043.3398" />
  </defs>
  <metadata
     id="metadata7">
    <rdf:RDF>
      <cc:Work
         rdf:about="">
        <dc:format>image/svg+xml</dc:format>
        <dc:type
           rdf:resource="http://purl.org/dc/dcmitype/StillImage" />
        <dc:title />
      </cc:Work>
    </rdf:RDF>
  </metadata>
  <g
     id="layer1"
     style="display:inline"
     transform="translate(0,-1044.3622)">
    <g
       id="g3979"
       transform="translate(19.972259,2.0319218)">
      <path
         id="path7582-7"
         d="m -15.483079,1044.1101 c 0,0 -0.06177,-0.5239 0.570417,0.027 0.848781,0.7407 1.964398,1.8187 2.159824,2.1056 0.224306,0.3291 0.560859,0.6576 -0.07133,1.3391 -0.836119,0.9013 -1.841086,1.8017 -1.841086,1.8017 0,0 -0.863068,0.9689 -0.83727,-0.047 l 0.03101,-1.2213 c -1.185896,-0.055 -2.101088,0.4222 -2.400562,0.7157 -0.299842,0.2938 -0.705165,0.882 -1.057748,0.9922 -0.352583,0.11 -0.542435,-1.0748 -0.542435,-1.4601 0,-0.3854 0.151702,-1.0958 0.6238,-1.7341 0.254765,-0.3446 0.873599,-0.8417 1.328966,-0.9688 0.455367,-0.1272 2.036414,-0.051 2.036414,-0.051 z"
         style="fill:url(#linearGradient3984);fill-opacity:1;stroke:#4a9045;stroke-width:1;stroke-linecap:butt;stroke-linejoin:miter;stroke-miterlimit:4;stroke-opacity:1;stroke-dasharray:none" />
      <g
         transform="translate(0.42388073,0.41389757)"
         id="g3071">
        <path
           style="opacity:0.85714285;fill:#ffffff;fill-opacity:1;stroke:none"
           d="m -15.41946,1045.2462 0,-0.5094 c 0,0 -0.04088,-0.3084 0.231762,-0.1951 0.461442,0.3641 0.865616,0.8356 1.032547,1.0835 0.127202,0.1889 -0.736469,0.2153 -1.037136,0.044 -0.139069,-0.079 -0.227173,-0.423 -0.227173,-0.423 z"
           id="path7602-5" />
      </g>
    </g>
  </g>
</svg>
