<?xml version="1.0" encoding="UTF-8" standalone="no"?>
<!-- Created with Inkscape (http://www.inkscape.org/) -->

<svg
   xmlns:dc="http://purl.org/dc/elements/1.1/"
   xmlns:cc="http://creativecommons.org/ns#"
   xmlns:rdf="http://www.w3.org/1999/02/22-rdf-syntax-ns#"
   xmlns:svg="http://www.w3.org/2000/svg"
   xmlns="http://www.w3.org/2000/svg"
   xmlns:sodipodi="http://sodipodi.sourceforge.net/DTD/sodipodi-0.dtd"
   xmlns:inkscape="http://www.inkscape.org/namespaces/inkscape"
   width="8"
   height="8"
   id="svg2"
   version="1.1"
   inkscape:version="0.48.2 r9819"
   sodipodi:docname="git-flow.svg">
  <defs
     id="defs4" />
  <sodipodi:namedview
     id="base"
     pagecolor="#ffffff"
     bordercolor="#666666"
     borderopacity="1.0"
     inkscape:pageopacity="0.0"
     inkscape:pageshadow="2"
     inkscape:zoom="24"
     inkscape:cx="-20.206118"
     inkscape:cy="1.709725"
     inkscape:document-units="px"
     inkscape:current-layer="layer1"
     showgrid="true"
     inkscape:window-width="2097"
     inkscape:window-height="1075"
     inkscape:window-x="169"
     inkscape:window-y="12"
     inkscape:window-maximized="0"
     showguides="true"
     inkscape:guide-bbox="true"
     inkscape:snap-global="true">
    <inkscape:grid
       type="xygrid"
       id="grid3999"
       empspacing="5"
       visible="true"
       enabled="true"
       snapvisiblegridlinesonly="true" />
  </sodipodi:namedview>
  <metadata
     id="metadata7">
    <rdf:RDF>
      <cc:Work
         rdf:about="">
        <dc:format>image/svg+xml</dc:format>
        <dc:type
           rdf:resource="http://purl.org/dc/dcmitype/StillImage" />
        <dc:title></dc:title>
      </cc:Work>
    </rdf:RDF>
  </metadata>
  <g
     inkscape:label="Layer 1"
     inkscape:groupmode="layer"
     id="layer1"
     style="display:inline"
     transform="translate(0,-1044.3622)">
    <path
       style="fill:#00bdfe;fill-opacity:0.94509804;stroke:#0ba0e5;stroke-width:0.5;stroke-linecap:butt;stroke-linejoin:miter;stroke-miterlimit:4;stroke-opacity:1;stroke-dasharray:none"
       d="m 1.8085873,1046.0282 c -0.107061,0 -0.2068875,0.011 -0.28125,0.055 -0.305,0.1788 -0.97631246,0.7758 -1.13281246,1.3125 -0.2436,0.8352 -0.270925,1.9765 -0.234375,2.7812 0.4276,-0.7935 0.90723746,-1.814 1.80468746,-1.8984 0.4978,-0.047 1.3136375,0.3995 1.5859375,0.625 0.2723101,0.2254 1.4170315,1.3448 1.7265625,1.5156 0.2424465,0.1339 0.8978395,0.3932 1.1953125,0.2188 0.304967,-0.1789 0.976274,-0.7759 1.132813,-1.3125 0.243591,-0.8353 0.270958,-1.9765 0.234375,-2.7813 -0.427579,0.7935 -0.907272,1.8141 -1.804688,1.8985 -0.497803,0.047 -1.3136275,-0.3995 -1.5859375,-0.625 -0.2723,-0.2255 -1.4170625,-1.3448 -1.7265625,-1.5157 -0.1818375,-0.1004 -0.5928797,-0.2678 -0.9140625,-0.2734 z"
       id="path3123"
       inkscape:connector-curvature="0" />
  </g>
</svg>
