<?xml version="1.0" encoding="UTF-8" standalone="no"?>
<!-- Created with Inkscape (http://www.inkscape.org/) -->

<svg
   xmlns:dc="http://purl.org/dc/elements/1.1/"
   xmlns:cc="http://creativecommons.org/ns#"
   xmlns:rdf="http://www.w3.org/1999/02/22-rdf-syntax-ns#"
   xmlns:svg="http://www.w3.org/2000/svg"
   xmlns="http://www.w3.org/2000/svg"
   xmlns:xlink="http://www.w3.org/1999/xlink"
   xmlns:sodipodi="http://sodipodi.sourceforge.net/DTD/sodipodi-0.dtd"
   xmlns:inkscape="http://www.inkscape.org/namespaces/inkscape"
   width="75"
   height="66"
   id="svg2"
   version="1.1"
   inkscape:version="0.48.2 r9819"
   sodipodi:docname="synchronize_wizban.svg">
  <defs
     id="defs4">
    <linearGradient
       id="linearGradient3957">
      <stop
         id="stop3959"
         offset="0"
         style="stop-color:#ffffff;stop-opacity:1;" />
      <stop
         id="stop3961"
         offset="1"
         style="stop-color:#ffffff;stop-opacity:0.86666667;" />
    </linearGradient>
    <linearGradient
       inkscape:collect="always"
       xlink:href="#linearGradient4972-7"
       id="linearGradient4978"
       x1="88.220116"
       y1="1032.2668"
       x2="163.22012"
       y2="1032.2668"
       gradientUnits="userSpaceOnUse"
       gradientTransform="translate(-88.220116,-999.2669)" />
    <linearGradient
       inkscape:collect="always"
       id="linearGradient4972-7">
      <stop
         style="stop-color:#b8ccf1;stop-opacity:0.10196079"
         offset="0"
         id="stop4974-8" />
      <stop
         style="stop-color:#6e97e2;stop-opacity:0.10196079"
         offset="1"
         id="stop4976-1" />
    </linearGradient>
    <linearGradient
       inkscape:collect="always"
       xlink:href="#linearGradient4964-3"
       id="linearGradient4970"
       x1="118.38584"
       y1="1032.1835"
       x2="163.22012"
       y2="1032.2668"
       gradientUnits="userSpaceOnUse"
       gradientTransform="translate(-88.220117,-999.2669)" />
    <linearGradient
       inkscape:collect="always"
       id="linearGradient4964-3">
      <stop
         style="stop-color:#ffffff;stop-opacity:0.349"
         offset="0"
         id="stop4966-1" />
      <stop
         style="stop-color:#91ade6;stop-opacity:1"
         offset="1"
         id="stop4968-1" />
    </linearGradient>
    <linearGradient
       inkscape:collect="always"
       xlink:href="#linearGradient4956-2"
       id="linearGradient4962"
       x1="88.220116"
       y1="1042.7972"
       x2="163.22012"
       y2="1042.7972"
       gradientUnits="userSpaceOnUse"
       gradientTransform="translate(-88.220116,-999.2669)" />
    <linearGradient
       inkscape:collect="always"
       id="linearGradient4956-2">
      <stop
         style="stop-color:#fcfdfe;stop-opacity:0.25641027"
         offset="0"
         id="stop4958-5" />
      <stop
         style="stop-color:#98aae7;stop-opacity:0.40392157"
         offset="1"
         id="stop4960-6" />
    </linearGradient>
    <filter
       height="1.2013515"
       y="-0.10067577"
       width="1.2017672"
       x="-0.1"
       id="filter4285-9-8"
       style="color-interpolation-filters:sRGB"
       inkscape:collect="always">
      <feGaussianBlur
         id="feGaussianBlur4287-9-5"
         stdDeviation="0.10000000000000001"
         inkscape:collect="always" />
    </filter>
    <linearGradient
       id="linearGradient5961">
      <stop
         style="stop-color:#f7e26b;stop-opacity:1"
         offset="0"
         id="stop5963" />
      <stop
         id="stop5965"
         offset="0.17353664"
         style="stop-color:#f7e26b;stop-opacity:1" />
      <stop
         id="stop5967"
         offset="0.34707329"
         style="stop-color:#fcf89d;stop-opacity:1" />
      <stop
         id="stop5969"
         offset="0.5"
         style="stop-color:#fcf89d;stop-opacity:1" />
      <stop
         style="stop-color:#f6e567;stop-opacity:1"
         offset="0.63836575"
         id="stop5971" />
      <stop
         id="stop5973"
         offset="0.81918287"
         style="stop-color:#f1c32f;stop-opacity:1" />
      <stop
         style="stop-color:#f1c32f;stop-opacity:1"
         offset="1"
         id="stop5975" />
    </linearGradient>
    <linearGradient
       id="linearGradient4721-1"
       inkscape:collect="always">
      <stop
         id="stop4723-2"
         offset="0"
         style="stop-color:#b5803b;stop-opacity:1" />
      <stop
         id="stop4725-1"
         offset="1"
         style="stop-color:#c99d19;stop-opacity:1" />
    </linearGradient>
    <linearGradient
       y2="12.0486"
       x2="-17.5"
       y1="26.048599"
       x1="-41.5"
       gradientTransform="matrix(0.5,0,0,-0.5,50.5,1027.8623)"
       gradientUnits="userSpaceOnUse"
       id="linearGradient3003"
       xlink:href="#linearGradient3865"
       inkscape:collect="always" />
    <linearGradient
       id="linearGradient4456-3">
      <stop
         style="stop-color:#bbbbbb;stop-opacity:0.65882355;"
         offset="0"
         id="stop4458-5" />
      <stop
         style="stop-color:#bbbbbb;stop-opacity:0.36862746;"
         offset="1"
         id="stop4460-9" />
    </linearGradient>
    <filter
       color-interpolation-filters="sRGB"
       inkscape:collect="always"
       id="filter4606-1"
       x="-0.062976152"
       width="1.1259522"
       y="-0.10879012"
       height="1.2175802">
      <feGaussianBlur
         inkscape:collect="always"
         stdDeviation="1.5412116"
         id="feGaussianBlur4608-8" />
    </filter>
    <linearGradient
       y2="992.40601"
       x2="53.631096"
       y1="1039.3622"
       x1="55.578632"
       gradientTransform="matrix(1,0,-0.72750163,1,733.40264,2.0004)"
       gradientUnits="userSpaceOnUse"
       id="linearGradient4097"
       xlink:href="#linearGradient4456-3"
       inkscape:collect="always" />
    <linearGradient
       id="linearGradient4029-7">
      <stop
         style="stop-color:#ffd461;stop-opacity:1;"
         offset="0"
         id="stop4031" />
      <stop
         style="stop-color:#ffffff;stop-opacity:1;"
         offset="1"
         id="stop4033" />
    </linearGradient>
    <linearGradient
       id="linearGradient3950">
      <stop
         style="stop-color:#e3a300;stop-opacity:1;"
         offset="0"
         id="stop3952" />
      <stop
         style="stop-color:#f1ae00;stop-opacity:1;"
         offset="1"
         id="stop3954" />
    </linearGradient>
    <linearGradient
       id="linearGradient3957-2">
      <stop
         id="stop3959-2"
         offset="0"
         style="stop-color:#ffffff;stop-opacity:1;" />
      <stop
         id="stop3961-1"
         offset="1"
         style="stop-color:#ffffff;stop-opacity:0.86666667;" />
    </linearGradient>
    <linearGradient
       inkscape:collect="always"
       xlink:href="#linearGradient5961"
       id="linearGradient4015"
       gradientUnits="userSpaceOnUse"
       gradientTransform="matrix(0.72898671,0,0,0.58708388,-436.01764,746.71644)"
       x1="673.60974"
       y1="460.61569"
       x2="696.68384"
       y2="460.61569" />
    <linearGradient
       inkscape:collect="always"
       xlink:href="#linearGradient4721-1"
       id="linearGradient4017"
       gradientUnits="userSpaceOnUse"
       gradientTransform="matrix(0.7012576,0,0,0.57573917,-416.90318,751.92581)"
       x1="690.18579"
       y1="484.1344"
       x2="690.18579"
       y2="438.44077" />
    <linearGradient
       inkscape:collect="always"
       xlink:href="#linearGradient3957-2"
       id="linearGradient4183"
       gradientUnits="userSpaceOnUse"
       gradientTransform="matrix(0.5,0,0,0.5,8.515625,1002.5029)"
       x1="80.96875"
       y1="-8.2813997"
       x2="83"
       y2="-4" />
    <linearGradient
       inkscape:collect="always"
       xlink:href="#linearGradient3957"
       id="linearGradient4186"
       gradientUnits="userSpaceOnUse"
       x1="80.125"
       y1="-8"
       x2="83"
       y2="-4"
       gradientTransform="matrix(0.5,0,0,0.5,-0.0625,996.3622)" />
    <radialGradient
       inkscape:collect="always"
       xlink:href="#linearGradient4029-7"
       id="radialGradient4189"
       gradientUnits="userSpaceOnUse"
       gradientTransform="matrix(2.5401977,-3.0924142,3.5,2.8749998,24.799091,934.94085)"
       cx="-11.929868"
       cy="12.16218"
       fx="-11.929868"
       fy="12.16218"
       r="8" />
    <linearGradient
       inkscape:collect="always"
       xlink:href="#linearGradient3950"
       id="linearGradient4191"
       gradientUnits="userSpaceOnUse"
       gradientTransform="matrix(2,0,0,2,55.5625,988.6118)"
       x1="-16.53125"
       y1="5.578125"
       x2="-1.53125"
       y2="5.578125" />
    <linearGradient
       id="linearGradient3865">
      <stop
         style="stop-color:#ffffff;stop-opacity:1;"
         offset="0"
         id="stop3867" />
      <stop
         style="stop-color:#f2b4b4;stop-opacity:1;"
         offset="1"
         id="stop3869" />
    </linearGradient>
    <linearGradient
       id="linearGradient3865-6">
      <stop
         style="stop-color:#ffffff;stop-opacity:1;"
         offset="0"
         id="stop3867-5" />
      <stop
         style="stop-color:#72e57f;stop-opacity:1;"
         offset="1"
         id="stop3869-7" />
    </linearGradient>
    <linearGradient
       y2="12.0486"
       x2="-17.5"
       y1="26.048599"
       x1="-41.5"
       gradientTransform="matrix(0.5,0,0,-0.5,61.5,1027.8623)"
       gradientUnits="userSpaceOnUse"
       id="linearGradient3072"
       xlink:href="#linearGradient3865-6"
       inkscape:collect="always" />
    <linearGradient
       inkscape:collect="always"
       xlink:href="#linearGradient3865"
       id="linearGradient3078"
       gradientUnits="userSpaceOnUse"
       gradientTransform="matrix(0.5,0,0,-0.5,50.5,1027.8623)"
       x1="-41.5"
       y1="26.048599"
       x2="-17.5"
       y2="12.0486" />
    <linearGradient
       inkscape:collect="always"
       xlink:href="#linearGradient3865-6"
       id="linearGradient3080"
       gradientUnits="userSpaceOnUse"
       gradientTransform="matrix(0.5,0,0,-0.5,61.5,1027.8623)"
       x1="-41.5"
       y1="26.048599"
       x2="-17.5"
       y2="12.0486" />
    <linearGradient
       inkscape:collect="always"
       xlink:href="#linearGradient3865-6"
       id="linearGradient3083"
       gradientUnits="userSpaceOnUse"
       gradientTransform="matrix(0.5,0,0,-0.5,56.5,1027.8623)"
       x1="-41.5"
       y1="26.048599"
       x2="-17.5"
       y2="12.0486" />
    <linearGradient
       inkscape:collect="always"
       xlink:href="#linearGradient3865"
       id="linearGradient3086"
       gradientUnits="userSpaceOnUse"
       gradientTransform="matrix(0.5,0,0,-0.5,44.5,1027.8623)"
       x1="-41.5"
       y1="26.048599"
       x2="-17.5"
       y2="12.0486" />
  </defs>
  <sodipodi:namedview
     id="base"
     pagecolor="#3e3e3e"
     bordercolor="#666666"
     borderopacity="1.0"
     inkscape:pageopacity="0"
     inkscape:pageshadow="2"
     inkscape:zoom="4"
     inkscape:cx="55.944583"
     inkscape:cy="26.698377"
     inkscape:document-units="px"
     inkscape:current-layer="layer1"
     showgrid="true"
     inkscape:window-width="2560"
     inkscape:window-height="1317"
     inkscape:window-x="0"
     inkscape:window-y="0"
     inkscape:window-maximized="1"
     showguides="true"
     inkscape:guide-bbox="true"
     inkscape:snap-global="true"
     inkscape:snap-bbox="true"
     inkscape:bbox-nodes="true">
    <inkscape:grid
       type="xygrid"
       id="grid4112"
       empspacing="5"
       visible="true"
       enabled="true"
       snapvisiblegridlinesonly="true" />
  </sodipodi:namedview>
  <metadata
     id="metadata7">
    <rdf:RDF>
      <cc:Work
         rdf:about="">
        <dc:format>image/svg+xml</dc:format>
        <dc:type
           rdf:resource="http://purl.org/dc/dcmitype/StillImage" />
        <dc:title></dc:title>
      </cc:Work>
    </rdf:RDF>
  </metadata>
  <g
     inkscape:groupmode="layer"
     id="layer2"
     inkscape:label="Background"
     style="display:inline"
     sodipodi:insensitive="true">
    <path
       sodipodi:nodetypes="cccc"
       inkscape:connector-curvature="0"
       id="rect4113-1"
       d="M 75,0 75,66 1e-6,66 C 1e-6,41.2048 50.00969,0 75,0 Z"
       style="display:inline;fill:url(#linearGradient4978);fill-opacity:1;stroke:none" />
    <path
       sodipodi:nodetypes="cccc"
       inkscape:connector-curvature="0"
       id="rect4113-1-0"
       d="M 75,21.0607 75,66 1e-6,66 C 10.625001,47.804 43.509694,25.4357 75,21.0607 Z"
       style="display:inline;opacity:0.40400002;fill:url(#linearGradient4962);fill-opacity:1;stroke:none" />
    <g
       id="g11331-3-1-1-7"
       style="display:inline"
       transform="matrix(0.27903303,0,0,0.27903303,-14.618136,-107.52874)">
      <g
         style="fill:#737986;fill-opacity:1;stroke:#595e68;stroke-opacity:1"
         id="g13408-8-2" />
    </g>
    <path
       sodipodi:nodetypes="cccc"
       inkscape:connector-curvature="0"
       id="rect4113-1-7"
       d="M 75,4.0000001e-7 75,66 30.000003,66 C 30.000003,46.1545 47.70944,9.2500004 75,4e-7 Z"
       style="display:inline;opacity:0.18399999;fill:url(#linearGradient4970);fill-opacity:1;stroke:none" />
  </g>
  <g
     inkscape:label="Foreground"
     inkscape:groupmode="layer"
     id="layer1"
     style="display:inline"
     transform="translate(0,-986.3622)">
    <path
       style="font-size:13.58917427px;font-style:normal;font-weight:normal;line-height:125%;letter-spacing:0px;word-spacing:0px;fill:url(#linearGradient4097);fill-opacity:1;stroke:none;display:inline;filter:url(#filter4606-1);font-family:Sans"
       d="m 65.056746,994.40641 -32.213167,46.95619 27.324925,0 32.213167,-46.95619 z"
       id="rect10961-8-3-6-1-4"
       inkscape:connector-curvature="0"
       transform="matrix(0.61482327,0,0.04696729,0.18740873,-39.902976,853.20176)"
       inkscape:transform-center-x="3.566402"
       inkscape:transform-center-y="0.42726565"
       sodipodi:nodetypes="ccccc" />
    <g
       id="g4010"
       transform="matrix(0.79997818,0,0,0.81926571,-13.315947,206.58251)">
      <path
         style="fill:url(#linearGradient4015);fill-opacity:1;stroke:none;display:inline"
         d="m 63.363047,1003.4604 c -5.760205,0 -10.368542,1.4042 -10.368542,3.1561 l 0,21.0401 c 0,1.7519 4.608337,3.1559 10.368542,3.1559 5.760206,0 10.450187,-1.404 10.450187,-3.1559 l 0,-21.0401 c 0,-1.7519 -4.689981,-3.1561 -10.450187,-3.1561 z"
         id="path3868-1"
         inkscape:connector-curvature="0"
         sodipodi:nodetypes="sccsccs" />
      <ellipse
         transform="matrix(4.0053658,0,0,3.3529387,-31.118177,-2494.8691)"
         sodipodi:ry="1.0000277"
         sodipodi:rx="2.4999995"
         sodipodi:cy="1044.4362"
         sodipodi:cx="23.628193"
         d="m 26.128192,1044.4362 c 0,0.5523 -1.119287,1 -2.499999,1 -1.380712,0 -2.5,-0.4477 -2.5,-1 0,-0.5523 1.119288,-1.0001 2.5,-1.0001 1.380712,0 2.499999,0.4478 2.499999,1.0001 z"
         style="fill:none;stroke:#c99d19;stroke-width:0.33706576;stroke-miterlimit:4;stroke-opacity:1;stroke-dasharray:none;display:inline"
         id="path3868"
         cx="23.628193"
         cy="1044.4362"
         rx="2.4999995"
         ry="1.0000277" />
      <path
         style="fill:none;stroke:url(#linearGradient4017);stroke-width:1.23523176;stroke-miterlimit:4;stroke-opacity:1;stroke-dasharray:none;display:inline"
         d="m 63.482102,1003.7085 c -5.541095,0 -9.974141,1.377 -9.974141,3.0952 l 0,20.6332 c 0,1.7182 4.433046,3.0953 9.974141,3.0953 5.541104,0 10.052686,-1.3771 10.052686,-3.0953 l 0,-20.6332 c 0,-1.7182 -4.511582,-3.0952 -10.052686,-3.0952 z"
         id="path3868-1-4"
         inkscape:connector-curvature="0"
         sodipodi:nodetypes="sccsccs" />
    </g>
    <path
       sodipodi:type="star"
       style="opacity:0.9;fill:#ffffff;fill-opacity:0.81584156;stroke:none;display:inline;filter:url(#filter4285-9-8)"
       id="path4252-6-0"
       sodipodi:sides="4"
       sodipodi:cx="4.7729707"
       sodipodi:cy="1041.2474"
       sodipodi:r1="3.3255017"
       sodipodi:r2="0.49178758"
       sodipodi:arg1="2.432965"
       sodipodi:arg2="-3.0800218"
       inkscape:flatsided="false"
       inkscape:rounded="0"
       inkscape:randomized="-0.017554997"
       d="m 2.2999628,1043.3702 1.9823895,-2.1047 -1.6734053,-2.5419 2.1987064,2.0209 2.4513363,-1.6427 -2.0383649,2.1623 1.7419712,2.4882 -2.2030799,-2.0431 z"
       transform="matrix(-1.0949024,1.965477,-1.7018666,-1.4025203,1809.0613,2484.0258)"
       inkscape:transform-center-x="0.26007335"
       inkscape:transform-center-y="0.53411096" />
    <g
       id="g4193">
      <path
         inkscape:connector-curvature="0"
         id="path4126"
         d="m 36.625,989.5492 c -3.30084,0 -6.004532,2.021 -6.3125,4.5626 C 28.946496,995.0256 28,996.901 28,999.0492 c 0,0.2696 0.03404,0.4908 0.0625,0.75 -0.27097,-0.05 -0.527762,-0.062 -0.8125,-0.062 -2.626566,0 -4.75,2.154 -4.75,4.875 0,2.7208 2.123434,4.9374 4.75,4.9374 0.516994,0 0.971486,-0.092 1.4375,-0.25 1.968532,0.4422 4.401108,0.6876 7.0625,0.6876 3.097014,0 5.903052,-0.3572 8,-0.9376 0.822276,0.4886 1.761878,0.8126 2.75,0.8126 3.318594,0 6,-3.1 6,-6.9376 0,-3.8376 -2.681406,-7 -6,-7 -0.5531,0 -1.116356,0.15 -1.625,0.3126 -0.09916,-0.7912 -0.831102,-1.4434 -1.9375,-1.875 -0.16286,-2.6536 -2.909912,-4.8126 -6.3125,-4.8126 z"
         style="fill:url(#radialGradient4189);fill-opacity:1;stroke:url(#linearGradient4191);stroke-width:1;stroke-linejoin:round;stroke-miterlimit:4;stroke-dasharray:none;display:inline" />
      <path
         sodipodi:nodetypes="csscscssc"
         inkscape:connector-curvature="0"
         id="path3947"
         d="m 37.4375,990.3622 c 0,0 1.21875,0 1.96875,0.25 0.75,0.25 1.662703,0.97072 2.09375,1.53125 0.572147,0.74402 0.9375,2.71875 0.9375,2.71875 0,0 -0.675584,-0.0766 -1,0 -0.362708,0.0856 -1,0.5 -1,0.5 0,0 0.109375,-1.32812 -0.07813,-1.95312 -0.1875,-0.625 -0.595118,-1.30206 -1,-1.6875 C 38.703363,991.09705 37.4375,990.3622 37.4375,990.3622 z"
         style="fill:url(#linearGradient4186);fill-opacity:1;stroke:none" />
      <path
         sodipodi:nodetypes="csscscssc"
         inkscape:connector-curvature="0"
         id="path3947-1"
         d="m 46.015625,996.50283 c 0,0 1.21875,0 1.96875,0.25 0.75,0.25 1.662705,0.97071 2.09375,1.53125 0.57215,0.74402 0.9375,2.71882 0.9375,2.71882 0,0 -0.675585,-0.077 -1,0 -0.36271,0.086 -1,0.5 -1,0.5 0,0 0.109375,-1.3282 -0.07813,-1.9532 -0.1875,-0.625 -0.595118,-1.30205 -1,-1.6875 -0.656012,-0.62452 -1.921875,-1.35937 -1.921875,-1.35937 z"
         style="fill:url(#linearGradient4183);fill-opacity:1;stroke:none;display:inline" />
    </g>
    <path
       style="fill:url(#linearGradient3086);fill-opacity:1;stroke:#d20502;stroke-width:1;stroke-linecap:butt;stroke-linejoin:miter;stroke-miterlimit:4;stroke-opacity:1;stroke-dasharray:none;display:inline"
       d="m 31.5,1011.8622 -6,6 c 1,0 3,0 4,0 l 2e-4,9 c 0.6666,0 3.3333,0 4,0 l -2e-4,-9 4,0 z"
       id="path3873"
       inkscape:connector-curvature="0"
       sodipodi:nodetypes="cccccccc" />
    <path
       style="fill:url(#linearGradient3083);fill-opacity:1;stroke:#4a9045;stroke-width:1;stroke-linecap:butt;stroke-linejoin:miter;stroke-miterlimit:4;stroke-opacity:1;stroke-dasharray:none;display:inline"
       d="m 43.5,1026.8622 -6,-6 c 1,0 3,0 4,0 l 2e-4,-9 c 0.6666,0 3.3333,0 4,0 l -2e-4,9 4,0 z"
       id="path3873-3"
       inkscape:connector-curvature="0"
       sodipodi:nodetypes="cccccccc" />
  </g>
</svg>
