<?xml version="1.0" encoding="UTF-8" standalone="no"?>
<!-- Created with Inkscape (http://www.inkscape.org/) -->

<svg
   width="16"
   height="16"
   id="svg2"
   version="1.1"
   xmlns:xlink="http://www.w3.org/1999/xlink"
   xmlns="http://www.w3.org/2000/svg"
   xmlns:svg="http://www.w3.org/2000/svg"
   xmlns:rdf="http://www.w3.org/1999/02/22-rdf-syntax-ns#"
   xmlns:cc="http://creativecommons.org/ns#"
   xmlns:dc="http://purl.org/dc/elements/1.1/">
  <defs
     id="defs4">
    <mask
       maskUnits="userSpaceOnUse"
       id="mask4917">
      <path
         style="fill:#ffffff;fill-opacity:1;stroke:#ffffff;stroke-width:2;stroke-linecap:round;stroke-linejoin:round;stroke-miterlimit:4;stroke-opacity:1;stroke-dashoffset:0;display:inline"
         d="m 462.77563,373.22885 29.11636,0 c 1.45425,0 2.625,1.17075 2.625,2.625 l 0,18.76896 c 0,1.45425 -1.17412,2.52598 -2.625,2.625 l -29.11636,1.98708 c -1.45088,0.099 -2.625,-1.17075 -2.625,-2.625 l 0,-20.75604 c 0,-1.45425 1.17075,-2.625 2.625,-2.625 z"
         id="path4919" />
    </mask>
    <linearGradient
       xlink:href="#linearGradient3901"
       id="linearGradient4090"
       gradientUnits="userSpaceOnUse"
       gradientTransform="matrix(0.92307692,0,0,1,23.269231,-8)"
       x1="-16"
       y1="1059.3622"
       x2="-16"
       y2="1051.3622" />
    <linearGradient
       id="linearGradient3901">
      <stop
         style="stop-color:#e9f8ff;stop-opacity:1;"
         offset="0"
         id="stop3903" />
      <stop
         style="stop-color:#ffffff;stop-opacity:1;"
         offset="1"
         id="stop3905" />
    </linearGradient>
    <linearGradient
       xlink:href="#linearGradient3893"
       id="linearGradient4092"
       gradientUnits="userSpaceOnUse"
       gradientTransform="matrix(0.92307692,0,0,1,23.269231,-8)"
       x1="-16"
       y1="1059.3622"
       x2="-16"
       y2="1051.3622" />
    <linearGradient
       id="linearGradient3893">
      <stop
         style="stop-color:#95a1b6;stop-opacity:1;"
         offset="0"
         id="stop3895" />
      <stop
         style="stop-color:#c5bc99;stop-opacity:1;"
         offset="1"
         id="stop3897" />
    </linearGradient>
  </defs>
  <metadata
     id="metadata7">
    <rdf:RDF>
      <cc:Work
         rdf:about="">
        <dc:format>image/svg+xml</dc:format>
        <dc:type
           rdf:resource="http://purl.org/dc/dcmitype/StillImage" />
        <dc:title />
      </cc:Work>
    </rdf:RDF>
  </metadata>
  <g
     id="layer1"
     style="display:inline"
     transform="translate(0,-1036.3622)">
    <g
       transform="matrix(0.27903303,0,0,0.27903303,-129.51159,939.94639)"
       style="display:inline"
       id="g13862">
      <g
         mask="url(#mask4917)"
         id="g4914"
         transform="matrix(1.1835826,0,0,1.1835826,-75.612218,-85.237312)" />
      <g
         id="g3825"
         transform="translate(-48.227376,50.075274)">
        <path
           d="m 538.85823,334.56007 -2.12788,0 -0.41998,-2.51986 c -1.37193,2.11855 -3.10317,3.17782 -5.19371,3.17782 -2.6412,0 -4.69442,-1.22726 -6.15967,-3.6818 -1.2226,-2.05321 -1.8339,-4.50308 -1.8339,-7.3496 0,-2.83716 0.64863,-5.27769 1.94589,-7.3216 1.50259,-2.37052 3.57447,-3.55578 6.21567,-3.55581 2.48252,3e-5 4.35841,0.76532 5.62769,2.29588 0.81194,0.97996 1.37191,2.00191 1.67991,3.06583 0.0747,0.27067 0.16331,0.81664 0.26599,1.63791 l -3.20582,0 c -0.28001,-1.08259 -0.76531,-1.95521 -1.45593,-2.61785 -0.75597,-0.73728 -1.66592,-1.10593 -2.72985,-1.10594 -1.74525,10e-6 -3.01918,0.88663 -3.8218,2.65985 -0.58797,1.30661 -0.88195,2.99118 -0.88195,5.05373 0,1.85724 0.33132,3.50915 0.99395,4.95573 0.84928,1.85723 2.07654,2.78585 3.6818,2.78585 1.32525,0 2.48718,-0.74663 3.48581,-2.23988 0.59729,-0.88662 0.92394,-1.85256 0.97995,-2.89784 l -3.89179,0 0,-3.26183 6.84562,0 0,10.91941"
           style="font-size:8px;font-style:normal;font-variant:normal;font-weight:bold;font-stretch:normal;text-align:start;line-height:125%;letter-spacing:0px;word-spacing:0px;writing-mode:lr-tb;text-anchor:start;fill:#333333;fill-opacity:1;stroke:none;font-family:Helvetica CY;-inkscape-font-specification:Helvetica CY Bold"
           id="path3048" />
        <path
           d="m 545.46587,334.56007 -3.5278,0 0,-20.90086 3.5278,0 0,20.90086"
           style="font-size:8px;font-style:normal;font-variant:normal;font-weight:bold;font-stretch:normal;text-align:start;line-height:125%;letter-spacing:0px;word-spacing:0px;writing-mode:lr-tb;text-anchor:start;fill:#c20000;fill-opacity:1;stroke:none;font-family:Helvetica CY;-inkscape-font-specification:Helvetica CY Bold"
           id="path3050" />
        <path
           d="m 561.06103,316.96303 -4.99773,0 0,17.59704 -3.52781,0 0,-17.59704 -5.17972,0 0,-3.30382 13.70526,0 0,3.30382"
           style="font-size:8px;font-style:normal;font-variant:normal;font-weight:bold;font-stretch:normal;text-align:start;line-height:125%;letter-spacing:0px;word-spacing:0px;writing-mode:lr-tb;text-anchor:start;fill:#008000;fill-opacity:1;stroke:none;font-family:Helvetica CY;-inkscape-font-specification:Helvetica CY Bold"
           id="path3052" />
      </g>
      <g
         style="display:inline"
         id="g3036"
         transform="matrix(3.5838051,0,0,3.5838051,528.65279,-3411.5903)">
        <rect
           y="1043.8622"
           x="2.5"
           height="7"
           width="12"
           id="rect3123"
           style="fill:url(#linearGradient4090);fill-opacity:1;stroke:url(#linearGradient4092);stroke-width:1;stroke-linejoin:miter;stroke-miterlimit:4;stroke-opacity:1;stroke-dasharray:none" />
        <path
           d="m 6.873,1049.3587 -0.388518,0 -0.1183567,-0.41 c -0.2921596,0.3617 -0.5249243,0.4135 -0.9066253,0.4135 -0.482243,0 -0.85713,-0.2241 -1.124662,-0.6722 C 4.111614,1048.3151 4,1047.8678 4,1047.3481 c 0,-0.518 0.11843,-0.9636 0.35529,-1.3367 0.274351,-0.4328 0.652645,-0.6492 1.134887,-0.6492 0.453271,0 0.770779,0.1647 1.027531,0.4192 0.1565814,0.1872 0.274056,0.3449 0.355292,0.5808 0.01364,0.05 -0.01874,-0.15 0,0 l -0.8063333,0 c -0.067787,-0.131 -0.018737,-0.054 -0.1198377,-0.1667 -0.113028,-0.1013 -0.1875043,-0.1269 -0.3817623,-0.1269 -0.318656,0 -0.501257,0.1452 -0.622803,0.4023 -0.107354,0.2385 -0.1526977,0.5211 -0.1526977,0.8976 0,0.3392 0.043823,0.6074 0.1648133,0.8716 0.155066,0.339 0.279145,0.4336 0.572242,0.4336 0.24197,0 0.3874544,-0.1197 0.5531217,-0.334 0.109057,-0.1618 0.1603647,-0.2216 0.1705917,-0.4207 l -0.6189154,0.01 -0.00842,-0.5651 1.25,0"
           style="font-size:8px;font-style:normal;font-variant:normal;font-weight:bold;font-stretch:normal;text-align:start;line-height:125%;letter-spacing:0px;word-spacing:0px;writing-mode:lr-tb;text-anchor:start;fill:#000000;fill-opacity:1;stroke:none;font-family:Helvetica CY;-inkscape-font-specification:Helvetica CY Bold"
           id="path3048-7" />
        <path
           d="m 8.9,1049.3622 -0.8,0 0,-4 0.8,0 0,4"
           style="font-size:8px;font-style:normal;font-variant:normal;font-weight:bold;font-stretch:normal;text-align:start;line-height:125%;letter-spacing:0px;word-spacing:0px;writing-mode:lr-tb;text-anchor:start;fill:#c20000;fill-opacity:1;stroke:none;font-family:Helvetica CY;-inkscape-font-specification:Helvetica CY Bold"
           id="path3050-9" />
        <path
           d="m 13.378454,1046.1622 -1.478681,0 4.54e-4,3.2 -0.799813,0 -8.28e-4,-3.2 -1.115586,0 3.75e-4,-0.8 3,0 -4.53e-4,0.8"
           style="font-size:8px;font-style:normal;font-variant:normal;font-weight:bold;font-stretch:normal;text-align:start;line-height:125%;letter-spacing:0px;word-spacing:0px;writing-mode:lr-tb;text-anchor:start;fill:#008000;fill-opacity:1;stroke:none;font-family:Helvetica CY;-inkscape-font-specification:Helvetica CY Bold"
           id="path3052-3" />
      </g>
    </g>
  </g>
</svg>
