<?xml version="1.0" encoding="UTF-8" standalone="no"?>
<!-- Created with Inkscape (http://www.inkscape.org/) -->

<svg
   width="75"
   height="66"
   id="svg2"
   version="1.1"
   xmlns:xlink="http://www.w3.org/1999/xlink"
   xmlns="http://www.w3.org/2000/svg"
   xmlns:svg="http://www.w3.org/2000/svg"
   xmlns:rdf="http://www.w3.org/1999/02/22-rdf-syntax-ns#"
   xmlns:cc="http://creativecommons.org/ns#"
   xmlns:dc="http://purl.org/dc/elements/1.1/">
  <defs
     id="defs4">
    <linearGradient
       id="linearGradient3957">
      <stop
         id="stop3959"
         offset="0"
         style="stop-color:#ffffff;stop-opacity:1;" />
      <stop
         id="stop3961"
         offset="1"
         style="stop-color:#ffffff;stop-opacity:0.86666667;" />
    </linearGradient>
    <linearGradient
       xlink:href="#linearGradient4972-7"
       id="linearGradient4978"
       x1="88.220116"
       y1="1032.2668"
       x2="163.22012"
       y2="1032.2668"
       gradientUnits="userSpaceOnUse"
       gradientTransform="translate(-88.220116,-999.2669)" />
    <linearGradient
       id="linearGradient4972-7">
      <stop
         style="stop-color:#b8ccf1;stop-opacity:0.10196079"
         offset="0"
         id="stop4974-8" />
      <stop
         style="stop-color:#6e97e2;stop-opacity:0.10196079"
         offset="1"
         id="stop4976-1" />
    </linearGradient>
    <linearGradient
       xlink:href="#linearGradient4964-3"
       id="linearGradient4970"
       x1="118.38584"
       y1="1032.1835"
       x2="163.22012"
       y2="1032.2668"
       gradientUnits="userSpaceOnUse"
       gradientTransform="translate(-88.220117,-999.2669)" />
    <linearGradient
       id="linearGradient4964-3">
      <stop
         style="stop-color:#ffffff;stop-opacity:0.349"
         offset="0"
         id="stop4966-1" />
      <stop
         style="stop-color:#91ade6;stop-opacity:1"
         offset="1"
         id="stop4968-1" />
    </linearGradient>
    <linearGradient
       xlink:href="#linearGradient4956-2"
       id="linearGradient4962"
       x1="88.220116"
       y1="1042.7972"
       x2="163.22012"
       y2="1042.7972"
       gradientUnits="userSpaceOnUse"
       gradientTransform="translate(-88.220116,-999.2669)" />
    <linearGradient
       id="linearGradient4956-2">
      <stop
         style="stop-color:#fcfdfe;stop-opacity:0.25641027"
         offset="0"
         id="stop4958-5" />
      <stop
         style="stop-color:#98aae7;stop-opacity:0.40392157"
         offset="1"
         id="stop4960-6" />
    </linearGradient>
    <linearGradient
       y2="10.9998"
       x2="-10"
       y1="26.9998"
       x1="-39"
       gradientTransform="matrix(0.5,0,0,-0.5,62,1035.3623)"
       gradientUnits="userSpaceOnUse"
       id="linearGradient3003"
       xlink:href="#linearGradient3865-6" />
    <linearGradient
       id="linearGradient4029-7">
      <stop
         style="stop-color:#ffd461;stop-opacity:1;"
         offset="0"
         id="stop4031" />
      <stop
         style="stop-color:#ffffff;stop-opacity:1;"
         offset="1"
         id="stop4033" />
    </linearGradient>
    <linearGradient
       id="linearGradient3950">
      <stop
         style="stop-color:#e3a300;stop-opacity:1;"
         offset="0"
         id="stop3952" />
      <stop
         style="stop-color:#f1ae00;stop-opacity:1;"
         offset="1"
         id="stop3954" />
    </linearGradient>
    <linearGradient
       id="linearGradient3957-2">
      <stop
         id="stop3959-2"
         offset="0"
         style="stop-color:#ffffff;stop-opacity:1;" />
      <stop
         id="stop3961-1"
         offset="1"
         style="stop-color:#ffffff;stop-opacity:0.86666667;" />
    </linearGradient>
    <linearGradient
       xlink:href="#linearGradient3957-2"
       id="linearGradient4183"
       gradientUnits="userSpaceOnUse"
       gradientTransform="matrix(0.5,0,0,0.5,8.515625,1002.5029)"
       x1="80.96875"
       y1="-8.2813997"
       x2="83"
       y2="-4" />
    <linearGradient
       xlink:href="#linearGradient3957"
       id="linearGradient4186"
       gradientUnits="userSpaceOnUse"
       x1="80.125"
       y1="-8"
       x2="83"
       y2="-4"
       gradientTransform="matrix(0.5,0,0,0.5,-0.0625,996.3622)" />
    <radialGradient
       xlink:href="#linearGradient4029-7"
       id="radialGradient4189"
       gradientUnits="userSpaceOnUse"
       gradientTransform="matrix(2.5401977,-3.0924142,3.5,2.8749998,24.799091,934.94085)"
       cx="-11.929868"
       cy="12.16218"
       fx="-11.929868"
       fy="12.16218"
       r="8" />
    <linearGradient
       xlink:href="#linearGradient3950"
       id="linearGradient4191"
       gradientUnits="userSpaceOnUse"
       gradientTransform="matrix(2,0,0,2,55.5625,988.6118)"
       x1="-16.53125"
       y1="5.578125"
       x2="-1.53125"
       y2="5.578125" />
    <linearGradient
       id="linearGradient3865-6">
      <stop
         style="stop-color:#ffffff;stop-opacity:1;"
         offset="0"
         id="stop3867-5" />
      <stop
         style="stop-color:#72e57f;stop-opacity:1;"
         offset="1"
         id="stop3869-7" />
    </linearGradient>
    <linearGradient
       xlink:href="#linearGradient4456"
       id="linearGradient4041"
       gradientUnits="userSpaceOnUse"
       gradientTransform="matrix(1,0,-0.72750163,1,733.40264,2.0004)"
       x1="63.734764"
       y1="1039.3618"
       x2="61.727211"
       y2="1006.3618" />
    <linearGradient
       id="linearGradient4456">
      <stop
         style="stop-color:#bbbbbb;stop-opacity:0.65882355;"
         offset="0"
         id="stop4458" />
      <stop
         style="stop-color:#bbbbbb;stop-opacity:0.36862746;"
         offset="1"
         id="stop4460" />
    </linearGradient>
    <filter
       color-interpolation-filters="sRGB"
       id="filter4606"
       x="-0.062976157"
       width="1.1259523"
       y="-0.10879013"
       height="1.2175803">
      <feGaussianBlur
         stdDeviation="1.5412116"
         id="feGaussianBlur4608" />
    </filter>
    <linearGradient
       xlink:href="#linearGradient4199"
       id="linearGradient4043"
       gradientUnits="userSpaceOnUse"
       gradientTransform="matrix(1.4358218,0,0,1.270043,-3.499458,-7.3507277)"
       x1="12"
       y1="26"
       x2="29"
       y2="21" />
    <linearGradient
       id="linearGradient4199">
      <stop
         style="stop-color:#765d54;stop-opacity:1;"
         offset="0"
         id="stop4201" />
      <stop
         id="stop4207"
         offset="0.49346113"
         style="stop-color:#c5b7ae;stop-opacity:1" />
      <stop
         style="stop-color:#765d54;stop-opacity:1"
         offset="1"
         id="stop4203" />
    </linearGradient>
    <linearGradient
       xlink:href="#linearGradient4894"
       id="linearGradient4045"
       gradientUnits="userSpaceOnUse"
       gradientTransform="matrix(1.0044289,0,0,1.0089329,10.981389,-7.447563)"
       x1="11.927121"
       y1="67.148781"
       x2="1.0141196"
       y2="30.177986" />
    <linearGradient
       id="linearGradient4894">
      <stop
         id="stop4896"
         offset="0"
         style="stop-color:#000000;stop-opacity:1" />
      <stop
         style="stop-color:#f3da70;stop-opacity:1;"
         offset="0.30296871"
         id="stop5248" />
      <stop
         style="stop-color:#f5e499;stop-opacity:1"
         offset="0.72222227"
         id="stop5246" />
      <stop
         id="stop4898"
         offset="1"
         style="stop-color:#ffffff;stop-opacity:1" />
    </linearGradient>
    <linearGradient
       xlink:href="#linearGradient5252"
       id="linearGradient4047"
       gradientUnits="userSpaceOnUse"
       gradientTransform="matrix(1.0067606,0,0,1.0132311,10.880208,-7.5854333)"
       x1="5"
       y1="64"
       x2="5"
       y2="32" />
    <linearGradient
       id="linearGradient5252">
      <stop
         style="stop-color:#5f443c;stop-opacity:1"
         offset="0"
         id="stop5254" />
      <stop
         style="stop-color:#765d54;stop-opacity:1"
         offset="1"
         id="stop5256" />
    </linearGradient>
    <filter
       color-interpolation-filters="sRGB"
       id="filter5309"
       x="-0.41279999"
       width="1.8256"
       y="-0.68799998"
       height="2.376">
      <feGaussianBlur
         stdDeviation="2.58"
         id="feGaussianBlur5311" />
    </filter>
    <linearGradient
       xlink:href="#linearGradient4944"
       id="linearGradient4049"
       gradientUnits="userSpaceOnUse"
       gradientTransform="matrix(1,0,0,1.0179005,6.5979291,-9.4754449)"
       x1="72.098145"
       y1="86.551781"
       x2="49.569252"
       y2="40.099323" />
    <linearGradient
       id="linearGradient4944">
      <stop
         style="stop-color:#000000;stop-opacity:1"
         offset="0"
         id="stop4908" />
      <stop
         id="stop4948"
         offset="0.28205132"
         style="stop-color:#d3b573;stop-opacity:1" />
      <stop
         id="stop4946"
         offset="0.8623212"
         style="stop-color:#fde29e;stop-opacity:1" />
      <stop
         style="stop-color:#ffffff;stop-opacity:1"
         offset="1"
         id="stop4910" />
    </linearGradient>
    <linearGradient
       xlink:href="#linearGradient4950"
       id="linearGradient4051"
       gradientUnits="userSpaceOnUse"
       gradientTransform="matrix(1,0,0,1.0179005,6.5979291,-9.4754449)"
       x1="60.342896"
       y1="74.470169"
       x2="60.805737"
       y2="44.682102" />
    <linearGradient
       id="linearGradient4950">
      <stop
         style="stop-color:#6a5148;stop-opacity:1;"
         offset="0"
         id="stop4952" />
      <stop
         style="stop-color:#978379;stop-opacity:1"
         offset="1"
         id="stop4954" />
    </linearGradient>
  </defs>
  <metadata
     id="metadata7">
    <rdf:RDF>
      <cc:Work
         rdf:about="">
        <dc:format>image/svg+xml</dc:format>
        <dc:type
           rdf:resource="http://purl.org/dc/dcmitype/StillImage" />
        <dc:title />
      </cc:Work>
    </rdf:RDF>
  </metadata>
  <g
     id="layer2"
     style="display:inline">
    <path
       id="rect4113-1"
       d="M 75,0 75,66 1e-6,66 C 1e-6,41.2048 50.00969,0 75,0 Z"
       style="display:inline;fill:url(#linearGradient4978);fill-opacity:1;stroke:none" />
    <path
       id="rect4113-1-0"
       d="M 75,21.0607 75,66 1e-6,66 C 10.625001,47.804 43.509694,25.4357 75,21.0607 Z"
       style="display:inline;opacity:0.40400002;fill:url(#linearGradient4962);fill-opacity:1;stroke:none" />
    <g
       id="g11331-3-1-1-7"
       style="display:inline"
       transform="matrix(0.27903303,0,0,0.27903303,-14.618136,-107.52874)">
      <g
         style="fill:#737986;fill-opacity:1;stroke:#595e68;stroke-opacity:1"
         id="g13408-8-2" />
    </g>
    <path
       id="rect4113-1-7"
       d="M 75,4.0000001e-7 75,66 30.000003,66 C 30.000003,46.1545 47.70944,9.2500004 75,4e-7 Z"
       style="display:inline;opacity:0.18399999;fill:url(#linearGradient4970);fill-opacity:1;stroke:none" />
  </g>
  <g
     id="layer1"
     style="display:inline"
     transform="translate(0,-986.3622)">
    <path
       style="fill:url(#linearGradient3003);fill-opacity:1;stroke:#4a9045;stroke-width:1;stroke-linecap:butt;stroke-linejoin:miter;stroke-miterlimit:4;stroke-opacity:1;stroke-dasharray:none;display:inline"
       d="m 58.5,1016.8625 0,11.9999 -11,-2e-4 0,4 -6,-6 6,-6 c 0,1 0,3 0,4 l 7,2e-4 0,-7.9999"
       id="path3873" />
    <g
       id="g4193"
       transform="translate(20,4.2504)">
      <path
         id="path4126"
         d="m 36.625,989.5492 c -3.30084,0 -6.004532,2.021 -6.3125,4.5626 C 28.946496,995.0256 28,996.901 28,999.0492 c 0,0.2696 0.03404,0.4908 0.0625,0.75 -0.27097,-0.05 -0.527762,-0.062 -0.8125,-0.062 -2.626566,0 -4.75,2.154 -4.75,4.875 0,2.7208 2.123434,4.9374 4.75,4.9374 0.516994,0 0.971486,-0.092 1.4375,-0.25 1.968532,0.4422 4.401108,0.6876 7.0625,0.6876 3.097014,0 5.903052,-0.3572 8,-0.9376 0.822276,0.4886 1.761878,0.8126 2.75,0.8126 3.318594,0 6,-3.1 6,-6.9376 0,-3.8376 -2.681406,-7 -6,-7 -0.5531,0 -1.116356,0.15 -1.625,0.3126 -0.09916,-0.7912 -0.831102,-1.4434 -1.9375,-1.875 -0.16286,-2.6536 -2.909912,-4.8126 -6.3125,-4.8126 z"
         style="fill:url(#radialGradient4189);fill-opacity:1;stroke:url(#linearGradient4191);stroke-width:1;stroke-linejoin:round;stroke-miterlimit:4;stroke-dasharray:none;display:inline" />
      <path
         id="path3947"
         d="m 37.4375,990.3622 c 0,0 1.21875,0 1.96875,0.25 0.75,0.25 1.662703,0.97072 2.09375,1.53125 0.572147,0.74402 0.9375,2.71875 0.9375,2.71875 0,0 -0.675584,-0.0766 -1,0 -0.362708,0.0856 -1,0.5 -1,0.5 0,0 0.109375,-1.32812 -0.07813,-1.95312 -0.1875,-0.625 -0.595118,-1.30206 -1,-1.6875 -0.656007,-0.62453 -1.92187,-1.35938 -1.92187,-1.35938 z"
         style="fill:url(#linearGradient4186);fill-opacity:1;stroke:none" />
      <path
         id="path3947-1"
         d="m 46.015625,996.50283 c 0,0 1.21875,0 1.96875,0.25 0.75,0.25 1.662705,0.97071 2.09375,1.53125 0.57215,0.74402 0.9375,2.71882 0.9375,2.71882 0,0 -0.675585,-0.077 -1,0 -0.36271,0.086 -1,0.5 -1,0.5 0,0 0.109375,-1.3282 -0.07813,-1.9532 -0.1875,-0.625 -0.595118,-1.30205 -1,-1.6875 -0.656012,-0.62452 -1.921875,-1.35937 -1.921875,-1.35937 z"
         style="fill:url(#linearGradient4183);fill-opacity:1;stroke:none;display:inline" />
    </g>
    <g
       transform="translate(0.98424163,10.953483)"
       style="display:inline"
       id="g3083">
      <path
         transform="matrix(0.76852909,0,0.05870911,0.23426091,-77.090255,785.86486)"
         id="rect10961-8-3-6-1"
         d="m 47.000294,1007.3622 -12.319149,16.9335 -12.416197,17.0669 16.933329,0 17.066666,0 12.416197,-17.0669 0.09676,-0.133 12.2221,-16.8001 -17.066666,0 -16.933329,0 z"
         style="font-size:13.58917427px;font-style:normal;font-weight:normal;line-height:125%;letter-spacing:0px;word-spacing:0px;fill:url(#linearGradient4041);fill-opacity:1;stroke:none;display:inline;filter:url(#filter4606);font-family:Sans" />
      <g
         transform="matrix(0.64,0,0,0.64,-9.7234074,370.51213)"
         id="g3167">
        <g
           id="g4451"
           transform="translate(6,-14.017696)">
          <g
             transform="translate(0,986.3622)"
             id="g5348">
            <path
               style="fill:#fffabf;fill-opacity:1;fill-rule:evenodd;stroke:url(#linearGradient4043);stroke-width:1.56249988;stroke-linecap:butt;stroke-linejoin:bevel;stroke-miterlimit:4;stroke-opacity:1;stroke-dasharray:none"
               d="m 14.403025,25.481913 3.760593,-4.964217 16.536826,0 3.904565,4.964217 z"
               id="path5250" />
            <rect
               style="fill:url(#linearGradient4045);fill-opacity:1;stroke:url(#linearGradient4047);stroke-width:1.5625;stroke-linejoin:bevel;stroke-miterlimit:4;stroke-opacity:1;stroke-dasharray:none"
               id="rect4876"
               width="41.860409"
               height="31"
               x="11.639588"
               y="25.5"
               ry="3.2487597"
               rx="3.2487597" />
            <ellipse
               style="fill:#ffffff;fill-opacity:1;stroke:none;filter:url(#filter5309)"
               id="path5111"
               cx="23.691999"
               cy="8.3080006"
               rx="7.5"
               ry="4.5"
               transform="matrix(1,0,0,0.38855855,-0.99999923,21.926323)"
               d="m 31.191999,8.3080006 c 0,2.4852814 -3.357864,4.5000004 -7.5,4.5000004 -4.142135,0 -7.5,-2.014719 -7.5,-4.5000004 0,-2.4852814 3.357865,-4.5 7.5,-4.5 4.142136,0 7.5,2.0147186 7.5,4.5 z" />
          </g>
          <rect
             ry="2.8473158"
             y="37.009739"
             x="42.799835"
             height="27.408155"
             width="41.81472"
             id="rect4932"
             style="fill:url(#linearGradient4049);fill-opacity:1;stroke:url(#linearGradient4051);stroke-width:1.66792929;stroke-linejoin:bevel;stroke-miterlimit:4;stroke-opacity:1;stroke-dasharray:none"
             transform="matrix(1,0,-0.47943731,0.87757613,0,986.3622)"
             rx="2.8473155" />
        </g>
      </g>
    </g>
  </g>
</svg>
