<?xml version="1.0" encoding="UTF-8" standalone="no"?>
<!-- Created with Inkscape (http://www.inkscape.org/) -->

<svg
   xmlns:dc="http://purl.org/dc/elements/1.1/"
   xmlns:cc="http://creativecommons.org/ns#"
   xmlns:rdf="http://www.w3.org/1999/02/22-rdf-syntax-ns#"
   xmlns:svg="http://www.w3.org/2000/svg"
   xmlns="http://www.w3.org/2000/svg"
   xmlns:xlink="http://www.w3.org/1999/xlink"
   xmlns:sodipodi="http://sodipodi.sourceforge.net/DTD/sodipodi-0.dtd"
   xmlns:inkscape="http://www.inkscape.org/namespaces/inkscape"
   width="16"
   height="16"
   id="svg2"
   version="1.1"
   inkscape:version="0.48.2 r9819"
   sodipodi:docname="cloneGit.svg">
  <defs
     id="defs4">
    <linearGradient
       id="linearGradient4029">
      <stop
         style="stop-color:#ffd461;stop-opacity:1;"
         offset="0"
         id="stop4031" />
      <stop
         id="stop4037"
         offset="0.73271257"
         style="stop-color:#ffd461;stop-opacity:1;" />
      <stop
         style="stop-color:#ffffff;stop-opacity:1;"
         offset="1"
         id="stop4033" />
    </linearGradient>
    <linearGradient
       id="linearGradient3950">
      <stop
         style="stop-color:#e3a300;stop-opacity:1;"
         offset="0"
         id="stop3952" />
      <stop
         style="stop-color:#f1ae00;stop-opacity:1;"
         offset="1"
         id="stop3954" />
    </linearGradient>
    <radialGradient
       r="8"
       fy="12.162078"
       fx="-14.007328"
       cy="12.162078"
       cx="-14.007328"
       gradientTransform="matrix(0.60743689,-0.87123513,1.7049886,1.1887409,-5.708486,1020.6357)"
       gradientUnits="userSpaceOnUse"
       id="radialGradient3013"
       xlink:href="#linearGradient4029"
       inkscape:collect="always" />
    <linearGradient
       y2="5.578125"
       x2="-1.53125"
       y1="5.578125"
       x1="-16.53125"
       gradientTransform="translate(17.03125,1036.3934)"
       gradientUnits="userSpaceOnUse"
       id="linearGradient3015"
       xlink:href="#linearGradient3950"
       inkscape:collect="always" />
    <linearGradient
       inkscape:collect="always"
       xlink:href="#linearGradient5961-9"
       id="linearGradient3083"
       gradientUnits="userSpaceOnUse"
       gradientTransform="matrix(0.25295627,0,0,0.22372082,-163.31435,939.93175)"
       x1="673.60974"
       y1="460.61569"
       x2="696.68384"
       y2="460.61569" />
    <linearGradient
       id="linearGradient5961-9">
      <stop
         style="stop-color:#f7e26b;stop-opacity:1"
         offset="0"
         id="stop5963-3" />
      <stop
         id="stop5965-8"
         offset="0.17353664"
         style="stop-color:#f7e26b;stop-opacity:1" />
      <stop
         id="stop5967-0"
         offset="0.34707329"
         style="stop-color:#fcf89d;stop-opacity:1" />
      <stop
         id="stop5969-2"
         offset="0.5"
         style="stop-color:#fcf89d;stop-opacity:1" />
      <stop
         style="stop-color:#f6e567;stop-opacity:1"
         offset="0.63836575"
         id="stop5971-4" />
      <stop
         id="stop5973-8"
         offset="0.81918287"
         style="stop-color:#f1c32f;stop-opacity:1" />
      <stop
         style="stop-color:#f1c32f;stop-opacity:1"
         offset="1"
         id="stop5975-3" />
    </linearGradient>
    <linearGradient
       id="linearGradient4721-1-9"
       inkscape:collect="always">
      <stop
         id="stop4723-2-0"
         offset="0"
         style="stop-color:#b5803b;stop-opacity:1" />
      <stop
         id="stop4725-1-5"
         offset="1"
         style="stop-color:#c99d19;stop-opacity:1" />
    </linearGradient>
    <linearGradient
       y2="438.44077"
       x2="690.18579"
       y1="484.1344"
       x1="690.18579"
       gradientTransform="matrix(0.24333435,0,0,0.21535949,-156.68169,943.68114)"
       gradientUnits="userSpaceOnUse"
       id="linearGradient3055"
       xlink:href="#linearGradient4721-1-9"
       inkscape:collect="always" />
    <linearGradient
       id="linearGradient3865-6">
      <stop
         style="stop-color:#ffffff;stop-opacity:1;"
         offset="0"
         id="stop3867-2" />
      <stop
         style="stop-color:#72e57f;stop-opacity:1;"
         offset="1"
         id="stop3869-70" />
    </linearGradient>
    <linearGradient
       inkscape:collect="always"
       xlink:href="#linearGradient3865-6"
       id="linearGradient3946"
       gradientUnits="userSpaceOnUse"
       gradientTransform="matrix(-0.99178444,0,0,1.0315414,0.845034,-27.16608)"
       x1="26.048346"
       y1="1042.5131"
       x2="19.526011"
       y2="1038.1595" />
    <linearGradient
       inkscape:collect="always"
       xlink:href="#linearGradient3865-6"
       id="linearGradient7608-9-7-1-0"
       gradientUnits="userSpaceOnUse"
       x1="27.909042"
       y1="1044.4"
       x2="22.048363"
       y2="1038.7933"
       gradientTransform="matrix(-0.99177926,0,0,-1.0302082,4.844903,2125.4886)" />
    <linearGradient
       inkscape:collect="always"
       xlink:href="#linearGradient3865-6"
       id="linearGradient3981"
       gradientUnits="userSpaceOnUse"
       gradientTransform="matrix(-0.99177926,0,0,-1.0302082,4.844903,2125.4886)"
       x1="27.909042"
       y1="1044.4"
       x2="22.048363"
       y2="1038.7933" />
  </defs>
  <sodipodi:namedview
     id="base"
     pagecolor="#d2d2d2"
     bordercolor="#666666"
     borderopacity="1.0"
     inkscape:pageopacity="0"
     inkscape:pageshadow="2"
     inkscape:zoom="32"
     inkscape:cx="-4.171442"
     inkscape:cy="5.8313164"
     inkscape:document-units="px"
     inkscape:current-layer="layer1"
     showgrid="true"
     inkscape:window-width="2560"
     inkscape:window-height="1317"
     inkscape:window-x="0"
     inkscape:window-y="0"
     inkscape:window-maximized="1"
     showguides="true"
     inkscape:guide-bbox="true"
     inkscape:snap-global="true"
     inkscape:snap-bbox="true"
     inkscape:bbox-nodes="true">
    <inkscape:grid
       type="xygrid"
       id="grid5273" />
  </sodipodi:namedview>
  <metadata
     id="metadata7">
    <rdf:RDF>
      <cc:Work
         rdf:about="">
        <dc:format>image/svg+xml</dc:format>
        <dc:type
           rdf:resource="http://purl.org/dc/dcmitype/StillImage" />
        <dc:title></dc:title>
      </cc:Work>
    </rdf:RDF>
  </metadata>
  <g
     inkscape:label="Layer 1"
     inkscape:groupmode="layer"
     id="layer1"
     style="display:inline"
     transform="translate(0,-1036.3622)">
    <path
       style="fill:url(#radialGradient3013);fill-opacity:1;stroke:url(#linearGradient3015);stroke-width:1;stroke-linejoin:round;stroke-miterlimit:4;stroke-dasharray:none;display:inline"
       d="m 7.5625,1036.8622 c -1.65042,0 -3.002266,1.0105 -3.15625,2.2813 -0.683002,0.4569 -1.15625,1.3946 -1.15625,2.4687 0,0.1348 0.01702,0.2454 0.03125,0.375 -0.135485,-0.025 -0.263881,-0.031 -0.40625,-0.031 -1.313283,0 -2.375,1.077 -2.375,2.4375 0,1.3604 1.061717,2.4687 2.375,2.4687 0.258497,0 0.485743,-0.046 0.71875,-0.125 0.984266,0.2211 2.200554,0.3438 3.53125,0.3438 1.5485078,0 2.951526,-0.1786 4,-0.4688 0.411138,0.2443 0.880939,0.4063 1.375,0.4063 1.659297,0 3,-1.55 3,-3.4688 0,-1.9188 -1.340703,-3.5 -3,-3.5 -0.27655,0 -0.558178,0.075 -0.8125,0.1563 -0.04958,-0.3956 -0.415551,-0.7217 -0.96875,-0.9375 -0.08143,-1.3268 -1.4549558,-2.4063 -3.15625,-2.4063 z"
       id="path4126"
       inkscape:connector-curvature="0" />
    <path
       style="fill:none;stroke:none"
       d="m 11.508726,1041.9072 2.5,-2.5 -2,0 c 0,0 -0.5,-1.5 -1.5,-2 -2.1705099,-1.0853 -6.5016025,-1.2764 -7.0000005,2 0,0 0.578363,-0.7892 1,-1 1.0540926,-0.527 2.3448078,-0.7333 3.5,-0.5 0.9525959,0.1924 2.0575025,0.2052 2.5000005,1.5 l -2.5000005,0 z"
       id="path3125"
       inkscape:connector-curvature="0"
       sodipodi:nodetypes="cccscaaccc" />
    <g
       style="display:inline"
       id="g3853"
       transform="matrix(1.0080562,0,0,1.01116,1.9019678,-7.732562)">
      <path
         style="fill:url(#linearGradient3083);fill-opacity:1;stroke:none;display:inline"
         d="m 9.9692973,1037.7695 c -1.9987742,0 -3.597854,0.5351 -3.597854,1.2027 l 0,8.0178 c 0,0.6676 1.5990798,1.2026 3.597854,1.2026 1.9987747,0 3.6261847,-0.535 3.6261847,-1.2026 l 0,-8.0178 c 0,-0.6676 -1.62741,-1.2027 -3.6261847,-1.2027 z"
         id="path3868-1"
         inkscape:connector-curvature="0"
         sodipodi:nodetypes="sccsccs" />
      <ellipse
         transform="matrix(1.3898503,0,0,1.2541915,-22.815413,-270.80649)"
         sodipodi:ry="1.0000277"
         sodipodi:rx="2.4999995"
         sodipodi:cy="1044.4362"
         sodipodi:cx="23.628193"
         d="m 26.128192,1044.4362 c 0,0.5523 -1.119287,1 -2.499999,1 -1.380712,0 -2.5,-0.4477 -2.5,-1 0,-0.5523 1.119288,-1.0001 2.5,-1.0001 1.380712,0 2.499999,0.4478 2.499999,1.0001 z"
         style="fill:none;stroke:#c99d19;stroke-width:0.75672567;stroke-miterlimit:4;stroke-opacity:1;stroke-dasharray:none;display:inline"
         id="path3868"
         cx="23.628193"
         cy="1044.4362"
         rx="2.4999995"
         ry="1.0000277" />
      <path
         style="fill:none;stroke:url(#linearGradient3055);stroke-width:0.99908942;stroke-miterlimit:4;stroke-opacity:1;stroke-dasharray:none;display:inline"
         d="m 10.010609,1037.8623 c -1.9227437,0 -3.460998,0.5151 -3.460998,1.1578 l 0,7.718 c 0,0.6427 1.5382543,1.1578 3.460998,1.1578 1.922747,0 3.488253,-0.5151 3.488253,-1.1578 l 0,-7.718 c 0,-0.6427 -1.565506,-1.1578 -3.488253,-1.1578 z"
         id="path3868-1-4"
         inkscape:connector-curvature="0"
         sodipodi:nodetypes="sccsccs" />
    </g>
    <path
       style="opacity:0.85714285;fill:#ffffff;fill-opacity:1;stroke:none"
       d="m 7.6456,1059.3484 0,-1.1932 c 0,0 -0.220968,-0.7514 0.441942,-0.4862 0.662912,0.2652 1.944544,1.3258 2.077126,1.5468 0.13258,0.221 1.502602,1.1932 1.193244,1.6352 -0.30936,0.442 -2.916816,0.132 -2.916816,0.132 z"
       id="path7602"
       inkscape:connector-curvature="0"
       sodipodi:nodetypes="ccssscc" />
    <g
       transform="matrix(2,0,0,2,-26.185686,-1057.6474)"
       style="display:inline"
       id="g3004">
      <path
         sodipodi:nodetypes="ccssscc"
         inkscape:connector-curvature="0"
         id="path7602-2"
         d="m 6.0531191,1046.6909 0,-0.5966 c 0,0 -0.110485,-0.3757 0.220971,-0.2431 0.331456,0.1326 0.972272,0.6629 1.038563,0.7734 0.06629,0.1105 0.751301,0.5966 0.596622,0.8176 -0.15468,0.221 -1.458408,0.066 -1.458408,0.066 z"
         style="opacity:0.85714285;fill:#ffffff;fill-opacity:1;stroke:none" />
    </g>
    <path
       style="opacity:0.85714285;fill:#ffffff;fill-opacity:1;stroke:none"
       d="m -18.532394,1042.4754 0,-0.5966 c 0,0 -0.110485,-0.3757 0.220971,-0.2431 0.331456,0.1326 0.972272,0.6629 1.038563,0.7734 0.06629,0.1105 0.751301,0.5966 0.596622,0.8176 -0.15468,0.221 -1.458408,0.066 -1.458408,0.066 z"
       id="path7602-2-3"
       inkscape:connector-curvature="0"
       sodipodi:nodetypes="ccssscc" />
    <g
       id="g3977"
       transform="translate(24.898033,-5.9426996)">
      <path
         sodipodi:nodetypes="ccssssscsssscc"
         inkscape:connector-curvature="0"
         id="path7582-7-2"
         d="m -18.398013,1054.768 0,1.6389 c 0,0 0.202294,0.8647 1.210404,0.045 1.00811,-0.8196 2.191544,-2.14 2.366867,-2.5042 0.175323,-0.3643 1.009934,-1.1005 -0.08766,-2.0033 -0.910794,-0.7491 -1.993923,-1.3979 -2.896768,-1.9988 -0.348481,-0.2319 -0.592843,-0.1924 -0.592843,0.4977 l 0,1.3601 c -1.35517,0.065 -1.861496,-0.4867 -2.171427,-0.8409 -0.309931,-0.3541 -0.805821,-1.0307 -1.208731,-1.1595 -0.402911,-0.1287 -0.619862,1.2561 -0.619862,1.7068 0,0.4508 0.09298,1.3522 0.712841,2.0282 0.619862,0.6761 0.998296,0.9844 1.518662,1.133 0.579388,0.1373 1.180423,0.098 1.768517,0.097 z"
         style="fill:url(#linearGradient3981);fill-opacity:1;stroke:#4a9045;stroke-width:1;stroke-linecap:butt;stroke-linejoin:miter;stroke-miterlimit:4;stroke-opacity:1;stroke-dasharray:none" />
      <path
         sodipodi:nodetypes="ccssscc"
         inkscape:connector-curvature="0"
         id="path7602-2-6"
         d="m -17.844894,1051.6317 0,-0.5966 c 0,0 -0.110485,-0.3757 0.220971,-0.2431 0.331456,0.1326 0.972272,0.6629 1.038563,0.7734 0.06629,0.1105 0.751301,0.5966 0.596622,0.8176 -0.15468,0.221 -1.458408,0.066 -1.458408,0.066 z"
         style="opacity:0.85714285;fill:#ffffff;fill-opacity:1;stroke:none" />
    </g>
  </g>
</svg>
