<?xml version="1.0" encoding="UTF-8" standalone="no"?>
<!-- Created with Inkscape (http://www.inkscape.org/) -->

<svg
   xmlns:dc="http://purl.org/dc/elements/1.1/"
   xmlns:cc="http://creativecommons.org/ns#"
   xmlns:rdf="http://www.w3.org/1999/02/22-rdf-syntax-ns#"
   xmlns:svg="http://www.w3.org/2000/svg"
   xmlns="http://www.w3.org/2000/svg"
   xmlns:xlink="http://www.w3.org/1999/xlink"
   xmlns:sodipodi="http://sodipodi.sourceforge.net/DTD/sodipodi-0.dtd"
   xmlns:inkscape="http://www.inkscape.org/namespaces/inkscape"
   width="16"
   height="16"
   id="svg2"
   version="1.1"
   inkscape:version="0.48.2 r9819"
   sodipodi:docname="pull_with_options.svg">
  <defs
     id="defs4">
    <linearGradient
       id="linearGradient4029">
      <stop
         style="stop-color:#ffd461;stop-opacity:1;"
         offset="0"
         id="stop4031" />
      <stop
         id="stop4037"
         offset="0.73271257"
         style="stop-color:#ffd461;stop-opacity:1;" />
      <stop
         style="stop-color:#ffffff;stop-opacity:1;"
         offset="1"
         id="stop4033" />
    </linearGradient>
    <linearGradient
       id="linearGradient3950">
      <stop
         style="stop-color:#e3a300;stop-opacity:1;"
         offset="0"
         id="stop3952" />
      <stop
         style="stop-color:#f1ae00;stop-opacity:1;"
         offset="1"
         id="stop3954" />
    </linearGradient>
    <linearGradient
       inkscape:collect="always"
       xlink:href="#linearGradient3950"
       id="linearGradient4151"
       x1="-16.53125"
       y1="5.578125"
       x2="-1.53125"
       y2="5.578125"
       gradientUnits="userSpaceOnUse"
       gradientTransform="translate(17.05829,1036.4192)" />
    <radialGradient
       inkscape:collect="always"
       xlink:href="#linearGradient4029"
       id="radialGradient4159"
       cx="-14.007328"
       cy="12.162078"
       fx="-14.007328"
       fy="12.162078"
       r="8"
       gradientTransform="matrix(0.60743689,-0.87123513,1.7049886,1.1887409,-5.6814465,1020.6615)"
       gradientUnits="userSpaceOnUse" />
    <linearGradient
       id="linearGradient3865">
      <stop
         style="stop-color:#ffffff;stop-opacity:1;"
         offset="0"
         id="stop3867" />
      <stop
         style="stop-color:#72e57f;stop-opacity:1;"
         offset="1"
         id="stop3869" />
    </linearGradient>
    <linearGradient
       y2="-3"
       x2="-24"
       y1="31"
       x1="-24"
       gradientTransform="matrix(0,0.5,-0.5,0,12,1060.8622)"
       gradientUnits="userSpaceOnUse"
       id="linearGradient3074"
       xlink:href="#linearGradient3865"
       inkscape:collect="always" />
  </defs>
  <sodipodi:namedview
     id="base"
     pagecolor="#d2d2d2"
     bordercolor="#666666"
     borderopacity="1.0"
     inkscape:pageopacity="0"
     inkscape:pageshadow="2"
     inkscape:zoom="35.114892"
     inkscape:cx="-2.6147084"
     inkscape:cy="7.9834735"
     inkscape:document-units="px"
     inkscape:current-layer="layer1"
     showgrid="true"
     inkscape:window-width="2560"
     inkscape:window-height="1317"
     inkscape:window-x="0"
     inkscape:window-y="0"
     inkscape:window-maximized="1"
     showguides="true"
     inkscape:guide-bbox="true"
     inkscape:snap-global="false"
     inkscape:snap-bbox="true"
     inkscape:bbox-nodes="true">
    <inkscape:grid
       type="xygrid"
       id="grid5273" />
  </sodipodi:namedview>
  <metadata
     id="metadata7">
    <rdf:RDF>
      <cc:Work
         rdf:about="">
        <dc:format>image/svg+xml</dc:format>
        <dc:type
           rdf:resource="http://purl.org/dc/dcmitype/StillImage" />
        <dc:title></dc:title>
      </cc:Work>
    </rdf:RDF>
  </metadata>
  <g
     inkscape:label="Layer 1"
     inkscape:groupmode="layer"
     id="layer1"
     style="display:inline"
     transform="translate(0,-1036.3622)">
    <path
       style="fill:url(#radialGradient4159);fill-opacity:1;stroke:url(#linearGradient4151);stroke-width:1;stroke-linejoin:round;stroke-miterlimit:4;stroke-dasharray:none"
       d="m 7.5895397,1036.8879 c -1.65042,0 -3.002266,1.0105 -3.15625,2.2813 -0.683002,0.4569 -1.15625,1.3946 -1.15625,2.4687 0,0.1348 0.017015,0.2454 0.03125,0.375 -0.135485,-0.025 -0.263881,-0.031 -0.40625,-0.031 -1.313283,0 -2.37500001,1.077 -2.37500001,2.4375 0,1.3604 1.06171701,2.4687 2.37500001,2.4687 0.258497,0 0.485743,-0.046 0.71875,-0.125 0.984266,0.2211 2.200554,0.3438 3.53125,0.3438 1.5485078,0 2.9515263,-0.1786 4.0000003,-0.4688 0.411138,0.2443 0.880939,0.4063 1.375,0.4063 1.659297,0 3,-1.55 3,-3.4688 0,-1.9188 -1.340703,-3.5 -3,-3.5 -0.27655,0 -0.558178,0.075 -0.8125,0.1563 -0.04958,-0.3956 -0.415551,-0.7217 -0.96875,-0.9375 -0.08143,-1.3268 -1.4549561,-2.4063 -3.1562503,-2.4063 z"
       id="path4126"
       inkscape:connector-curvature="0" />
    <path
       style="fill:url(#linearGradient3074);fill-opacity:1;stroke:#4a9045;stroke-width:1;stroke-linecap:butt;stroke-linejoin:bevel;stroke-miterlimit:4;stroke-opacity:1;stroke-dasharray:none;display:inline"
       d="m 6.5000066,1045.3626 -6.6e-6,2.4996 -2,0 0,-2 0,-1 -4,4 4,4 0,-1 0,-2 4,0 c 0,-2.1667 0,-2.3329 0,-4.4996"
       id="path3873"
       inkscape:connector-curvature="0"
       sodipodi:nodetypes="ccccccccccc" />
    <path
       inkscape:connector-curvature="0"
       id="path3109"
       style="font-size:8px;font-style:normal;font-variant:normal;font-weight:bold;font-stretch:normal;text-align:start;line-height:125%;letter-spacing:0px;word-spacing:0px;writing-mode:lr-tb;text-anchor:start;fill:#00018d;fill-opacity:1;stroke:none;font-family:Sans;-inkscape-font-specification:Sans Bold"
       d="m 8.532401,1042.3622 -1.488,0 c 0,0 -0.01538,-0.3321 0.207031,-0.7267 0.08594,-0.1666 0.266925,-0.3776 0.542969,-0.6328 l 0.25,-0.2265 c 0.148435,-0.1354 0.256507,-0.263 0.324218,-0.3828 0.07031,-0.1198 0.105466,-0.2396 0.105469,-0.3594 -3e-6,-0.1823 -0.0625,-0.3242 -0.1875,-0.4258 -0.125002,-0.1042 -0.299481,-0.1562 -0.523437,-0.1562 -0.21094,0 -0.363716,0.01 -0.564257,0.194 -0.206443,0.1907 -0.171121,0.7023 -0.171121,0.7023 l -1.027773,0 c 0,0 0.0033,-0.8705 0.230561,-1.2142 0.209451,-0.3168 0.686234,-0.5818 0.946652,-0.6339 0.260415,-0.052 0.511717,-0.078 0.753906,-0.078 0.635414,0 1.119789,0.1302 1.453125,0.3906 0.33333,0.2579 0.499996,0.6355 0.5,1.1328 -4e-6,0.2553 -0.05078,0.4844 -0.152343,0.6875 -0.101567,0.2006 -0.274744,0.4167 -0.519532,0.6485 l -0.25,0.2226 c -0.177086,0.1615 -0.292971,0.2917 -0.347656,0.3907 -0.05469,0.096 -0.08181,0.2031 -0.08203,0.3203 l -2.82e-4,0.147 m -1.488,1 1.488282,0 0,1 -1.488282,0 0,-1"
       sodipodi:nodetypes="ccccccccssccacsccccccscccccc" />
  </g>
</svg>
