<?xml version="1.0" encoding="UTF-8" standalone="no"?>
<!-- Created with Inkscape (http://www.inkscape.org/) -->

<svg
   xmlns:dc="http://purl.org/dc/elements/1.1/"
   xmlns:cc="http://creativecommons.org/ns#"
   xmlns:rdf="http://www.w3.org/1999/02/22-rdf-syntax-ns#"
   xmlns:svg="http://www.w3.org/2000/svg"
   xmlns="http://www.w3.org/2000/svg"
   xmlns:xlink="http://www.w3.org/1999/xlink"
   xmlns:sodipodi="http://sodipodi.sourceforge.net/DTD/sodipodi-0.dtd"
   xmlns:inkscape="http://www.inkscape.org/namespaces/inkscape"
   width="16"
   height="16"
   id="svg2"
   version="1.1"
   inkscape:version="0.48.2 r9819"
   sodipodi:docname="reset.svg">
  <defs
     id="defs4">
    <linearGradient
       inkscape:collect="always"
       id="linearGradient5103">
      <stop
         style="stop-color:#fefdef;stop-opacity:1"
         offset="0"
         id="stop5105" />
      <stop
         style="stop-color:#fce69e;stop-opacity:1"
         offset="1"
         id="stop5107" />
    </linearGradient>
    <linearGradient
       id="linearGradient5103-2">
      <stop
         style="stop-color:#f6feff;stop-opacity:1;"
         offset="0"
         id="stop5105-6" />
      <stop
         style="stop-color:#caf3f6;stop-opacity:1;"
         offset="1"
         id="stop5107-6" />
    </linearGradient>
    <linearGradient
       inkscape:collect="always"
       xlink:href="#linearGradient5103-2"
       id="linearGradient3168"
       gradientUnits="userSpaceOnUse"
       gradientTransform="matrix(-1,0,0,1,15.98823,2.0202772)"
       x1="11.906143"
       y1="1042.3622"
       x2="11.906143"
       y2="1047.2684" />
    <linearGradient
       inkscape:collect="always"
       xlink:href="#linearGradient5103"
       id="linearGradient3942"
       gradientUnits="userSpaceOnUse"
       gradientTransform="translate(0,-1.9995401)"
       x1="11.906143"
       y1="1042.3622"
       x2="11.906143"
       y2="1047.2684" />
  </defs>
  <sodipodi:namedview
     id="base"
     pagecolor="#ffffff"
     bordercolor="#666666"
     borderopacity="1.0"
     inkscape:pageopacity="0.0"
     inkscape:pageshadow="2"
     inkscape:zoom="32"
     inkscape:cx="-7.3167265"
     inkscape:cy="7.2790335"
     inkscape:document-units="px"
     inkscape:current-layer="layer1"
     showgrid="true"
     inkscape:window-width="2325"
     inkscape:window-height="1237"
     inkscape:window-x="88"
     inkscape:window-y="51"
     inkscape:window-maximized="0"
     showguides="true"
     inkscape:guide-bbox="true"
     inkscape:snap-global="false">
    <inkscape:grid
       type="xygrid"
       id="grid3999"
       empspacing="5"
       visible="true"
       enabled="true"
       snapvisiblegridlinesonly="true" />
  </sodipodi:namedview>
  <metadata
     id="metadata7">
    <rdf:RDF>
      <cc:Work
         rdf:about="">
        <dc:format>image/svg+xml</dc:format>
        <dc:type
           rdf:resource="http://purl.org/dc/dcmitype/StillImage" />
        <dc:title></dc:title>
      </cc:Work>
    </rdf:RDF>
  </metadata>
  <g
     inkscape:label="Layer 1"
     inkscape:groupmode="layer"
     id="layer1"
     style="display:inline"
     transform="translate(0,-1036.3622)">
    <path
       style="fill:url(#linearGradient3942);fill-opacity:1;stroke:none;display:inline"
       d="m 7,1042.3622 0,1 5,5e-4 0,2 2.999893,-2.5 -2.999893,-2.5 0,2 z"
       id="path4108-1"
       inkscape:connector-curvature="0"
       sodipodi:nodetypes="cccccccc" />
    <path
       style="fill:#b57a13;fill-opacity:1;stroke:none;display:inline"
       d="m 11,1039.3627 0,2 -3,-5e-4 -1,0 c -0.9918497,0.9918 -0.9863244,2.0137 0,3 l 1,0 3,5e-4 0,2 c 0,0.6519 0.740915,0.6375 1.5,0 l 3.9375,-3.5 -3.9375,-3.5 c -0.760225,-0.7602 -1.5,-0.5203 -1.5,0 z m 1,1 3,2.5 -3,2.5 0,-2 -4.4375,-5e-4 c -0.2762136,-0.2099 -0.2774437,-0.7282 0,-1 l 4.4375,5e-4 z"
       id="path4108-1-6"
       inkscape:connector-curvature="0"
       sodipodi:nodetypes="cccccccccccccccccccc" />
    <path
       style="fill:url(#linearGradient3168);fill-opacity:1;stroke:none;display:inline"
       d="m 8.98823,1046.382 0,1 -5,5e-4 0,2 -2.999893,-2.5 2.999893,-2.5 0,2 z"
       id="path4108-1-8"
       inkscape:connector-curvature="0"
       sodipodi:nodetypes="cccccccc" />
    <path
       style="fill:#567f82;fill-opacity:1;stroke:none;display:inline"
       d="m 4.98823,1043.3825 0,2 3,-5e-4 1,0 c 0.9918497,0.9918 0.9863244,2.0137 0,3 l -1,0 -3,5e-4 0,2 c 0,0.6519 -0.740915,0.6375 -1.5,0 l -3.9375,-3.5 3.9375,-3.5 c 0.760225,-0.7602 1.5,-0.5203 1.5,0 z m -1,1 -3,2.5 3,2.5 0,-2 4.4375,-5e-4 c 0.2762136,-0.2099 0.2774437,-0.7282 0,-1 l -4.4375,5e-4 z"
       id="path4108-1-6-4"
       inkscape:connector-curvature="0"
       sodipodi:nodetypes="cccccccccccccccccccc" />
  </g>
</svg>
