<?xml version="1.0" encoding="UTF-8" standalone="no"?>
<!-- Created with Inkscape (http://www.inkscape.org/) -->

<svg
   xmlns:dc="http://purl.org/dc/elements/1.1/"
   xmlns:cc="http://creativecommons.org/ns#"
   xmlns:rdf="http://www.w3.org/1999/02/22-rdf-syntax-ns#"
   xmlns:svg="http://www.w3.org/2000/svg"
   xmlns="http://www.w3.org/2000/svg"
   xmlns:xlink="http://www.w3.org/1999/xlink"
   xmlns:sodipodi="http://sodipodi.sourceforge.net/DTD/sodipodi-0.dtd"
   xmlns:inkscape="http://www.inkscape.org/namespaces/inkscape"
   width="16"
   height="16"
   id="svg2"
   version="1.1"
   inkscape:version="0.91 r13725"
   sodipodi:docname="settings.svg"
   inkscape:export-xdpi="180"
   inkscape:export-ydpi="180">
  <defs
     id="defs4">
    <linearGradient
       inkscape:collect="always"
       id="linearGradient4216">
      <stop
         style="stop-color:#000000;stop-opacity:1;"
         offset="0"
         id="stop4218" />
      <stop
         style="stop-color:#000000;stop-opacity:0;"
         offset="1"
         id="stop4220" />
    </linearGradient>
    <linearGradient
       inkscape:collect="always"
       id="linearGradient4208">
      <stop
         style="stop-color:#666666;stop-opacity:1"
         offset="0"
         id="stop4210" />
      <stop
         style="stop-color:#eeeeee;stop-opacity:1"
         offset="1"
         id="stop4212" />
    </linearGradient>
    <linearGradient
       inkscape:collect="always"
       id="linearGradient4185">
      <stop
         style="stop-color:#707070;stop-opacity:1"
         offset="0"
         id="stop4165" />
      <stop
         style="stop-color:#eeeeee;stop-opacity:1"
         offset="1"
         id="stop4167" />
    </linearGradient>
    <linearGradient
       inkscape:collect="always"
       xlink:href="#linearGradient4185"
       id="linearGradient4254"
       gradientUnits="userSpaceOnUse"
       spreadMethod="reflect"
       x1="-55.395313"
       y1="12.264062"
       x2="-60.504688"
       y2="-0.035937976"
       gradientTransform="matrix(0.45789818,0,0,0.45888738,-16.321414,1087.7677)" />
    <linearGradient
       inkscape:collect="always"
       xlink:href="#linearGradient4216"
       id="linearGradient4256"
       gradientUnits="userSpaceOnUse"
       spreadMethod="reflect"
       x1="-51.495312"
       y1="12.464062"
       x2="-46.604691"
       y2="11.164062"
       gradientTransform="matrix(0.45789818,0,0,0.45888738,-16.321414,1087.7677)" />
    <linearGradient
       inkscape:collect="always"
       xlink:href="#linearGradient4208"
       id="linearGradient4258"
       gradientUnits="userSpaceOnUse"
       gradientTransform="matrix(0.45789818,0,0,0.45888738,-16.321414,612.19411)"
       spreadMethod="reflect"
       x1="-56.300003"
       y1="1037.6263"
       x2="-60.700001"
       y2="1035.7262" />
  </defs>
  <sodipodi:namedview
     id="base"
     pagecolor="#ffffff"
     bordercolor="#666666"
     borderopacity="1.0"
     inkscape:pageopacity="0.0"
     inkscape:pageshadow="2"
     inkscape:zoom="10"
     inkscape:cx="-13.196505"
     inkscape:cy="14.780562"
     inkscape:document-units="px"
     inkscape:current-layer="g6616"
     showgrid="true"
     inkscape:window-width="1969"
     inkscape:window-height="1147"
     inkscape:window-x="372"
     inkscape:window-y="44"
     inkscape:window-maximized="0"
     showguides="true"
     inkscape:guide-bbox="true"
     inkscape:snap-global="false">
    <inkscape:grid
       type="xygrid"
       id="grid4000" />
  </sodipodi:namedview>
  <metadata
     id="metadata7">
    <rdf:RDF>
      <cc:Work
         rdf:about="">
        <dc:format>image/svg+xml</dc:format>
        <dc:type
           rdf:resource="http://purl.org/dc/dcmitype/StillImage" />
        <dc:title />
      </cc:Work>
    </rdf:RDF>
  </metadata>
  <g
     inkscape:label="Layer 1"
     inkscape:groupmode="layer"
     id="layer1"
     style="display:inline"
     transform="translate(0,-1036.3622)">
    <g
       id="g6616">
      <g
         style="display:inline"
         id="layer1-4"
         inkscape:label="Layer 1"
         transform="matrix(0.60535164,0,0,0.60535164,6.3760192,414.27492)" />
      <g
         id="g4262"
         transform="matrix(1.038461,0,0,1.0383817,53.479725,-85.831547)">
        <path
           style="opacity:1;fill:url(#linearGradient4254);fill-opacity:1;stroke:url(#linearGradient4256);stroke-width:0.48150012;stroke-linejoin:round;stroke-miterlimit:4;stroke-dasharray:none;stroke-opacity:1"
           d="m -43.795305,1080.9597 a 6.8684727,6.8833107 0 0 0 -1.334343,0.1371 l -0.44985,1.7863 a 5.2658291,5.2772049 0 0 0 -1.599961,0.924 l -1.768989,-0.5073 a 6.8684727,6.8833107 0 0 0 -1.343287,2.3285 l 1.317351,1.2817 a 5.2658291,5.2772049 0 0 0 -0.08675,0.933 5.2658291,5.2772049 0 0 0 0.08228,0.9222 l -1.316457,1.2754 a 6.8684727,6.8833107 0 0 0 1.340604,2.3321 l 1.760046,-0.5001 a 5.2658291,5.2772049 0 0 0 1.603538,0.924 l 0.44806,1.7953 a 6.8684727,6.8833107 0 0 0 1.347759,0.1344 6.8684727,6.8833107 0 0 0 1.334344,-0.138 l 0.449849,-1.7854 a 5.2658291,5.2772049 0 0 0 1.600855,-0.9249 l 1.768095,0.5073 a 6.8684727,6.8833107 0 0 0 1.343288,-2.3285 l -1.317352,-1.2817 a 5.2658291,5.2772049 0 0 0 0.08675,-0.9321 5.2658291,5.2772049 0 0 0 -0.08228,-0.9232 l 1.316458,-1.2754 a 6.8684727,6.8833107 0 0 0 -1.340604,-2.332 l -1.760941,0.501 a 5.2658291,5.2772049 0 0 0 -1.602643,-0.9241 l -0.448061,-1.7952 a 6.8684727,6.8833107 0 0 0 -1.347759,-0.1344 z m 0,3.4416 a 3.4342364,3.4416554 0 0 1 3.434237,3.4417 3.4342364,3.4416554 0 0 1 -3.434237,3.4416 3.4342364,3.4416554 0 0 1 -3.434236,-3.4416 3.4342364,3.4416554 0 0 1 3.434236,-3.4417 z"
           id="path4250"
           inkscape:connector-curvature="0" />
        <path
           style="opacity:1;fill:url(#linearGradient4258);fill-opacity:1;stroke:none;stroke-width:1;stroke-linejoin:round;stroke-miterlimit:4;stroke-dasharray:none;stroke-opacity:1"
           d="m -43.795305,1084.1719 a 3.6631854,3.671099 0 0 0 -3.663185,3.6711 3.6631854,3.671099 0 0 0 3.663185,3.6711 3.6631854,3.671099 0 0 0 3.663186,-3.6711 3.6631854,3.671099 0 0 0 -3.663186,-3.6711 z m 0,0.4589 a 3.2052873,3.2122117 0 0 1 3.205287,3.2122 3.2052873,3.2122117 0 0 1 -3.205287,3.2122 3.2052873,3.2122117 0 0 1 -3.205287,-3.2122 3.2052873,3.2122117 0 0 1 3.205287,-3.2122 z"
           id="path4252"
           inkscape:connector-curvature="0" />
      </g>
    </g>
  </g>
</svg>
