<?xml version="1.0" encoding="UTF-8" standalone="no"?>
<!-- Created with Inkscape (http://www.inkscape.org/) -->

<svg
   xmlns:dc="http://purl.org/dc/elements/1.1/"
   xmlns:cc="http://creativecommons.org/ns#"
   xmlns:rdf="http://www.w3.org/1999/02/22-rdf-syntax-ns#"
   xmlns:svg="http://www.w3.org/2000/svg"
   xmlns="http://www.w3.org/2000/svg"
   xmlns:xlink="http://www.w3.org/1999/xlink"
   xmlns:sodipodi="http://sodipodi.sourceforge.net/DTD/sodipodi-0.dtd"
   xmlns:inkscape="http://www.inkscape.org/namespaces/inkscape"
   version="1.1"
   id="Layer_1"
   x="0px"
   y="0px"
   width="1024"
   height="1024"
   viewBox="0 0 1024 1024"
   enable-background="new 0 0 612 792"
   xml:space="preserve"
   inkscape:version="0.48.5 r10040"
   sodipodi:docname="egit.svg"><metadata
     id="metadata68"><rdf:RDF><cc:Work
         rdf:about=""><dc:format>image/svg+xml</dc:format><dc:type
           rdf:resource="http://purl.org/dc/dcmitype/StillImage" /><dc:title /></cc:Work></rdf:RDF></metadata><defs
     id="defs66"><linearGradient
       id="linearGradient3857"
       gradientUnits="userSpaceOnUse"
       x1="131.3853"
       y1="358.57709"
       x2="131.3853"
       y2="432.2084"
       gradientTransform="matrix(1,0,0,-1,0,793)"><stop
         offset="0.30179274"
         style="stop-color:#473788"
         id="stop3859" /><stop
         offset="0.79185295"
         style="stop-color:#2C2255"
         id="stop3861" /></linearGradient><linearGradient
       inkscape:collect="always"
       xlink:href="#linearGradient3857"
       id="linearGradient3867"
       gradientUnits="userSpaceOnUse"
       x1="59.992634"
       y1="83.283737"
       x2="103.99626"
       y2="83.283737" /></defs><sodipodi:namedview
     pagecolor="#ffffff"
     bordercolor="#666666"
     borderopacity="1"
     objecttolerance="10"
     gridtolerance="10"
     guidetolerance="10"
     inkscape:pageopacity="0"
     inkscape:pageshadow="2"
     inkscape:window-width="1440"
     inkscape:window-height="834"
     id="namedview64"
     showgrid="true"
     fit-margin-top="0"
     fit-margin-left="0"
     fit-margin-right="0"
     fit-margin-bottom="0"
     inkscape:zoom="0.5"
     inkscape:cx="337.61231"
     inkscape:cy="539.67392"
     inkscape:window-x="0"
     inkscape:window-y="27"
     inkscape:window-maximized="1"
     inkscape:current-layer="Layer_1"
     showguides="true"
     inkscape:guide-bbox="true"
     inkscape:snap-global="false"><sodipodi:guide
       orientation="1,0"
       position="564,-16"
       id="guide3764" /><inkscape:grid
       type="xygrid"
       id="grid3770"
       empspacing="5"
       visible="true"
       enabled="true"
       snapvisiblegridlinesonly="true"
       spacingx="128px"
       spacingy="128px" /></sodipodi:namedview><path
     transform="matrix(9.2443236,0,0,9.2443236,-91.099239,-79.891299)"
     d="m 119.55508,64.027542 a 48.661018,48.661018 0 1 1 -97.322033,0 48.661018,48.661018 0 1 1 97.322033,0 z"
     sodipodi:ry="48.661018"
     sodipodi:rx="48.661018"
     sodipodi:cy="64.027542"
     sodipodi:cx="70.894066"
     id="path3924"
     style="fill:#2c2255;fill-opacity:1"
     sodipodi:type="arc" /><g
     id="g13"
     transform="matrix(9.1849384,0,0,9.1849384,-642.88022,-2967.521)"><path
       d="m 79.6,378.829 c 0,-25.824 19.395,-47.281 44.626,-51.055 -0.626,-0.023 -1.255,-0.048 -1.887,-0.048 -28.314,0 -51.269,22.88 -51.269,51.103 0,28.224 22.954,51.103 51.269,51.103 0.634,0 1.263,-0.024 1.891,-0.047 C 98.995,426.111 79.6,404.654 79.6,378.829 z"
       id="path15"
       inkscape:connector-curvature="0"
       style="fill:#f7941e" /></g><path
     sodipodi:type="arc"
     style="fill:url(#linearGradient3867);fill-opacity:1"
     id="path3839"
     sodipodi:cx="93.362816"
     sodipodi:cy="83.283737"
     sodipodi:rx="20.096365"
     sodipodi:ry="20.096365"
     d="m 113.45918,83.283737 a 20.096365,20.096365 0 1 1 -40.192729,0 20.096365,20.096365 0 1 1 40.192729,0 z"
     transform="matrix(0,-15.40426,15.40426,0,-718.65592,1950.1852)" /><path
     style="fill:#ffffff;fill-opacity:1"
     d="m 400.03658,92.992381 c -20.77969,8.151399 -40.8173,17.817679 -59.95579,28.838399 l 153.29419,152.5442 c -11.58596,27.74412 -6.21332,60.91924 16.375,83.5 7.39212,7.41372 15.89228,13.0214 25,16.75 l 0,273.49999 c -9.10772,3.7286 -17.62844,9.3872 -25,16.75 -29.8242,29.821 -29.8242,78.1334 0,108 29.80256,29.8112 78.17572,29.8112 108,0 29.82424,-29.8666 29.82424,-78.179 0,-108 -6.05812,-6.0407 -12.8598,-10.8994 -20.125,-14.5 l 0,-271.12499 103,103.125 c -11.3756,27.63892 -5.80608,60.54728 16.625,83 29.85896,29.8416 78.15412,29.8416 108,0 29.82424,-29.84052 29.82424,-78.18444 0,-108 -21.35196,-21.38124 -52.14388,-27.33908 -78.875,-18.125 l -110.5,-110.5 c 9.22708,-26.73116 3.22696,-57.51436 -18.125,-78.875 -21.224,-21.22832 -51.74032,-27.24388 -78.375,-18.25 z"
     id="path3841"
     inkscape:connector-curvature="0"
     sodipodi:nodetypes="ccccccccccccccccccccc" /></svg>