<?xml version="1.0" encoding="UTF-8" standalone="no"?>
<!-- Created with Inkscape (http://www.inkscape.org/) -->

<svg
   width="256"
   height="256"
   id="svg2"
   version="1.1"
   xmlns:xlink="http://www.w3.org/1999/xlink"
   xmlns="http://www.w3.org/2000/svg"
   xmlns:svg="http://www.w3.org/2000/svg"
   xmlns:rdf="http://www.w3.org/1999/02/22-rdf-syntax-ns#"
   xmlns:cc="http://creativecommons.org/ns#"
   xmlns:dc="http://purl.org/dc/elements/1.1/">
  <defs
     id="defs4">
    <linearGradient
       id="linearGradient3919">
      <stop
         style="stop-color:#4a388e;stop-opacity:1;"
         offset="0"
         id="stop3921" />
      <stop
         style="stop-color:#4a388e;stop-opacity:0;"
         offset="1"
         id="stop3923" />
    </linearGradient>
    <linearGradient
       xlink:href="#linearGradient3919"
       id="linearGradient4028"
       gradientUnits="userSpaceOnUse"
       x1="-155"
       y1="208.5"
       x2="-155"
       y2="128.5" />
    <clipPath
       clipPathUnits="userSpaceOnUse"
       id="clipPath4358">
      <g
         id="g4360"
         transform="matrix(2.6895137,0,0,2.6895137,-279.26445,797.63342)">
        <path
           id="path4362"
           d="M 91.00618,46.808751 C 89.739964,36.015528 86.096471,24.346466 78.949621,15.930521 77.64058,11.867843 47.722206,1.0216914 45.410206,3.3326914 L 25.289794,4.4006335 44.348623,23.459375 c 2.456,-0.83 5.272,-0.273 7.229,1.685 1.969,1.97 2.521,4.81 1.67,7.275 l 10.186003,10.185 c 2.465,-0.85 5.307,-0.3 7.275,1.671 2.75,2.75 2.75,7.206 0,9.958 -2.752,2.751 -7.208,2.751 -9.961,0 -2.068,-2.07 -2.58,-5.11 -1.531,-7.658 l -9.500003,-9.499 0,24.997004 c 0.67,0.332 1.303,0.774 1.861,1.332 2.75,2.75 2.75,7.206 0,9.959 -2.75,2.749 -7.209,2.749 -9.957,0 -2.75,-2.754 -2.75,-7.21 0,-9.959 0.68,-0.679 1.467,-1.193 2.307,-1.537 l 0,-25.230004 c -0.84,-0.344 -1.625,-0.853 -2.307,-1.537 -2.083,-2.082 -2.584,-5.14 -1.516,-7.698 L 22.652517,9.9491992 3.8345041,31.656348 c -2.3109998,2.313 0.2638462,34.968982 2.5748462,37.279982 L 26.542075,89.476306 c 2.31,2.311 36.842506,3.047418 39.155506,0.736418 L 81.855991,75.738089 C 84.290344,73.557406 93.31718,49.119751 91.00618,46.808751 z"
           style="fill:#f05133" />
      </g>
    </clipPath>
  </defs>
  <metadata
     id="metadata7">
    <rdf:RDF>
      <cc:Work
         rdf:about="">
        <dc:format>image/svg+xml</dc:format>
        <dc:type
           rdf:resource="http://purl.org/dc/dcmitype/StillImage" />
        <dc:title />
      </cc:Work>
    </rdf:RDF>
  </metadata>
  <g
     id="layer2"
     style="display:inline"
     transform="translate(0,-796.36218)">
    <path
       style="fill:#ffffff;fill-opacity:1;stroke:none;display:inline"
       id="path3930-7"
       d="m -35,131 a 117.5,115 0 1 1 -235,0 117.5,115 0 1 1 235,0 z"
       transform="matrix(0.97802907,0,0,0.99929056,290.23116,792.66709)" />
    <g
       id="g13"
       transform="matrix(2.3221826,0,0,2.3221826,-165.03768,44.652048)">
      <path
         d="m 79.6,378.829 c 0,-25.824 19.395,-47.281 44.626,-51.055 -0.626,-0.023 -1.255,-0.048 -1.887,-0.048 -28.314,0 -51.269,22.88 -51.269,51.103 0,28.224 22.954,51.103 51.269,51.103 0.634,0 1.263,-0.024 1.891,-0.047 C 98.995,426.111 79.6,404.654 79.6,378.829 z"
         id="path15"
         style="fill:#f7941e" />
    </g>
    <g
       id="g4010"
       clip-path="url(#clipPath4358)"
       transform="matrix(0.99055525,0,0,0.99055525,293.59603,5.9924254)">
      <path
         transform="matrix(0.98735439,0,0,1.0088186,-3.3969548,794.17545)"
         d="m -35,131 c 0,63.51275 -52.606542,115 -117.5,115 C -217.39346,246 -270,194.51275 -270,131 -270,67.487254 -217.39346,16 -152.5,16 -87.606542,16 -35,67.487254 -35,131 z"
         id="path3930"
         style="fill:#2c2255;fill-opacity:1;stroke:none" />
      <path
         transform="matrix(1.0395329,0,0,1.0059996,7.1591002,797.05974)"
         d="m -80,128.5 c 0,42.80207 -33.57864,77.5 -75,77.5 -41.42136,0 -75,-34.69793 -75,-77.5 0,-42.802068 33.57864,-77.5 75,-77.5 41.42136,0 75,34.697932 75,77.5 z"
         id="path3973"
         style="fill:url(#linearGradient4028);fill-opacity:1;stroke:none" />
    </g>
  </g>
</svg>
